<svg width="33" height="23" viewBox="0 0 33 23" fill="none" xmlns="http://www.w3.org/2000/svg">
<rect x="1" y="1.77777" width="30.6923" height="20.2222" stroke="black" stroke-width="1.82609"/>
<line x1="4.98238" y1="2.55554" x2="4.98238" y2="22" stroke="black" stroke-width="1.82609"/>
<line x1="16.4921" y1="2.55554" x2="16.4921" y2="22" stroke="black" stroke-width="1.82609"/>
<line x1="22.6303" y1="2.55554" x2="22.6303" y2="22" stroke="black" stroke-width="1.82609"/>
<line y1="-0.913044" x2="12.4563" y2="-0.913044" transform="matrix(-0.492802 0.870142 -0.914833 -0.403831 10.2075 1.67743)" stroke="black" stroke-width="1.82609"/>
<line y1="-0.913044" x2="9.93725" y2="-0.913044" transform="matrix(-0.463292 0.886206 -0.926072 -0.377347 14.8115 1)" stroke="black" stroke-width="1.82609"/>
<line y1="-0.913044" x2="9.93725" y2="-0.913044" transform="matrix(-0.463292 0.886206 -0.926072 -0.377347 14.8115 13.1935)" stroke="black" stroke-width="1.82609"/>
<line y1="-0.913044" x2="11.2971" y2="-0.913044" transform="matrix(-0.543366 -0.839496 0.892819 -0.450415 11.7422 21.3226)" stroke="black" stroke-width="1.82609"/>
<line y1="-0.913044" x2="12.4563" y2="-0.913044" transform="matrix(-0.492802 0.870142 -0.914833 -0.403831 28.623 1.67743)" stroke="black" stroke-width="1.82609"/>
<line y1="-0.913044" x2="11.2971" y2="-0.913044" transform="matrix(-0.543366 -0.839496 0.892819 -0.450415 30.1577 21.3226)" stroke="black" stroke-width="1.82609"/>
<line y1="-0.913044" x2="7.16486" y2="-0.913044" transform="matrix(-0.749652 -0.661832 0.749652 -0.661832 16.3462 13.871)" stroke="black" stroke-width="1.82609"/>
<line x1="22.4849" y1="12.802" x2="17.1137" y2="12.802" stroke="black" stroke-width="1.82609"/>
<line x1="22.4849" y1="3.46859" x2="17.1137" y2="3.46859" stroke="black" stroke-width="1.82609"/>
</svg>
