<svg width="1030" height="461" viewBox="0 0 1030 461" fill="none" xmlns="http://www.w3.org/2000/svg">
<path d="M0 0H1030V461H0V0Z" fill="#EDF5DD"/>
<rect width="913" height="378" transform="translate(58 41)" fill="white"/>
<path d="M113.608 99.152V102.44H109.144V116H105.04V102.44H100.576V99.152H113.608ZM130.116 99.152L124.284 110.432V116H120.18V110.432L114.348 99.152H119.004L122.268 106.208L125.508 99.152H130.116ZM144.609 104.576C144.609 105.552 144.385 106.448 143.937 107.264C143.489 108.064 142.801 108.712 141.873 109.208C140.945 109.704 139.793 109.952 138.417 109.952H135.873V116H131.769V99.152H138.417C139.761 99.152 140.897 99.384 141.825 99.848C142.753 100.312 143.449 100.952 143.913 101.768C144.377 102.584 144.609 103.52 144.609 104.576ZM138.105 106.688C138.889 106.688 139.473 106.504 139.857 106.136C140.241 105.768 140.433 105.248 140.433 104.576C140.433 103.904 140.241 103.384 139.857 103.016C139.473 102.648 138.889 102.464 138.105 102.464H135.873V106.688H138.105ZM154.714 116.168C153.13 116.168 151.674 115.8 150.346 115.064C149.034 114.328 147.986 113.304 147.202 111.992C146.434 110.664 146.05 109.176 146.05 107.528C146.05 105.88 146.434 104.4 147.202 103.088C147.986 101.776 149.034 100.752 150.346 100.016C151.674 99.28 153.13 98.912 154.714 98.912C156.298 98.912 157.746 99.28 159.058 100.016C160.386 100.752 161.426 101.776 162.178 103.088C162.946 104.4 163.33 105.88 163.33 107.528C163.33 109.176 162.946 110.664 162.178 111.992C161.41 113.304 160.37 114.328 159.058 115.064C157.746 115.8 156.298 116.168 154.714 116.168ZM154.714 112.424C156.058 112.424 157.13 111.976 157.93 111.08C158.746 110.184 159.154 109 159.154 107.528C159.154 106.04 158.746 104.856 157.93 103.976C157.13 103.08 156.058 102.632 154.714 102.632C153.354 102.632 152.266 103.072 151.45 103.952C150.65 104.832 150.25 106.024 150.25 107.528C150.25 109.016 150.65 110.208 151.45 111.104C152.266 111.984 153.354 112.424 154.714 112.424ZM176.797 104.48C176.493 103.92 176.053 103.496 175.477 103.208C174.917 102.904 174.253 102.752 173.485 102.752C172.157 102.752 171.093 103.192 170.293 104.072C169.493 104.936 169.093 106.096 169.093 107.552C169.093 109.104 169.509 110.32 170.341 111.2C171.189 112.064 172.349 112.496 173.821 112.496C174.829 112.496 175.677 112.24 176.365 111.728C177.069 111.216 177.581 110.48 177.901 109.52H172.693V106.496H181.621V110.312C181.317 111.336 180.797 112.288 180.061 113.168C179.341 114.048 178.421 114.76 177.301 115.304C176.181 115.848 174.917 116.12 173.509 116.12C171.845 116.12 170.357 115.76 169.045 115.04C167.749 114.304 166.733 113.288 165.997 111.992C165.277 110.696 164.917 109.216 164.917 107.552C164.917 105.888 165.277 104.408 165.997 103.112C166.733 101.8 167.749 100.784 169.045 100.064C170.341 99.328 171.821 98.96 173.485 98.96C175.501 98.96 177.197 99.448 178.573 100.424C179.965 101.4 180.885 102.752 181.333 104.48H176.797ZM192.486 116L188.982 109.64H187.998V116H183.894V99.152H190.782C192.11 99.152 193.238 99.384 194.166 99.848C195.11 100.312 195.814 100.952 196.278 101.768C196.742 102.568 196.974 103.464 196.974 104.456C196.974 105.576 196.654 106.576 196.014 107.456C195.39 108.336 194.462 108.96 193.23 109.328L197.118 116H192.486ZM187.998 106.736H190.542C191.294 106.736 191.854 106.552 192.222 106.184C192.606 105.816 192.798 105.296 192.798 104.624C192.798 103.984 192.606 103.48 192.222 103.112C191.854 102.744 191.294 102.56 190.542 102.56H187.998V106.736ZM210.039 113.024H203.751L202.743 116H198.447L204.543 99.152H209.295L215.391 116H211.047L210.039 113.024ZM208.983 109.856L206.895 103.688L204.831 109.856H208.983ZM230.086 104.576C230.086 105.552 229.862 106.448 229.414 107.264C228.966 108.064 228.278 108.712 227.35 109.208C226.422 109.704 225.27 109.952 223.894 109.952H221.35V116H217.246V99.152H223.894C225.238 99.152 226.374 99.384 227.302 99.848C228.23 100.312 228.926 100.952 229.39 101.768C229.854 102.584 230.086 103.52 230.086 104.576ZM223.582 106.688C224.366 106.688 224.95 106.504 225.334 106.136C225.718 105.768 225.91 105.248 225.91 104.576C225.91 103.904 225.718 103.384 225.334 103.016C224.95 102.648 224.366 102.464 223.582 102.464H221.35V106.688H223.582ZM246.814 99.152V116H242.71V109.064H236.326V116H232.222V99.152H236.326V105.752H242.71V99.152H246.814ZM264.225 99.152L258.393 110.432V116H254.289V110.432L248.457 99.152H253.113L256.377 106.208L259.617 99.152H264.225Z" fill="black"/>
<path d="M106.804 127.576V129.22H104.572V136H102.52V129.22H100.288V127.576H106.804ZM115.058 127.576L112.142 133.216V136H110.09V133.216L107.174 127.576H109.502L111.134 131.104L112.754 127.576H115.058ZM122.305 130.288C122.305 130.776 122.193 131.224 121.969 131.632C121.745 132.032 121.401 132.356 120.937 132.604C120.473 132.852 119.897 132.976 119.209 132.976H117.937V136H115.885V127.576H119.209C119.881 127.576 120.449 127.692 120.913 127.924C121.377 128.156 121.725 128.476 121.957 128.884C122.189 129.292 122.305 129.76 122.305 130.288ZM119.053 131.344C119.445 131.344 119.737 131.252 119.929 131.068C120.121 130.884 120.217 130.624 120.217 130.288C120.217 129.952 120.121 129.692 119.929 129.508C119.737 129.324 119.445 129.232 119.053 129.232H117.937V131.344H119.053ZM125.425 129.22V130.924H128.173V132.508H125.425V134.356H128.533V136H123.373V127.576H128.533V129.22H125.425ZM135.349 127.576V129.22H131.917V130.996H134.485V132.592H131.917V136H129.865V127.576H135.349ZM141.672 134.512H138.528L138.024 136H135.876L138.924 127.576H141.3L144.348 136H142.176L141.672 134.512ZM141.144 132.928L140.1 129.844L139.068 132.928H141.144ZM144.927 131.776C144.927 130.944 145.107 130.204 145.467 129.556C145.827 128.9 146.327 128.392 146.967 128.032C147.615 127.664 148.347 127.48 149.163 127.48C150.163 127.48 151.019 127.744 151.731 128.272C152.443 128.8 152.919 129.52 153.159 130.432H150.903C150.735 130.08 150.495 129.812 150.183 129.628C149.879 129.444 149.531 129.352 149.139 129.352C148.507 129.352 147.995 129.572 147.603 130.012C147.211 130.452 147.015 131.04 147.015 131.776C147.015 132.512 147.211 133.1 147.603 133.54C147.995 133.98 148.507 134.2 149.139 134.2C149.531 134.2 149.879 134.108 150.183 133.924C150.495 133.74 150.735 133.472 150.903 133.12H153.159C152.919 134.032 152.443 134.752 151.731 135.28C151.019 135.8 150.163 136.06 149.163 136.06C148.347 136.06 147.615 135.88 146.967 135.52C146.327 135.152 145.827 134.644 145.467 133.996C145.107 133.348 144.927 132.608 144.927 131.776ZM156.468 129.22V130.924H159.216V132.508H156.468V134.356H159.576V136H154.416V127.576H159.576V129.22H156.468ZM161.868 136.096C161.508 136.096 161.212 135.992 160.98 135.784C160.756 135.568 160.644 135.304 160.644 134.992C160.644 134.672 160.756 134.404 160.98 134.188C161.212 133.972 161.508 133.864 161.868 133.864C162.22 133.864 162.508 133.972 162.732 134.188C162.964 134.404 163.08 134.672 163.08 134.992C163.08 135.304 162.964 135.568 162.732 135.784C162.508 135.992 162.22 136.096 161.868 136.096ZM161.868 131.212C161.508 131.212 161.212 131.108 160.98 130.9C160.756 130.684 160.644 130.42 160.644 130.108C160.644 129.788 160.756 129.52 160.98 129.304C161.212 129.088 161.508 128.98 161.868 128.98C162.22 128.98 162.508 129.088 162.732 129.304C162.964 129.52 163.08 129.788 163.08 130.108C163.08 130.42 162.964 130.684 162.732 130.9C162.508 131.108 162.22 131.212 161.868 131.212ZM173.281 130.288C173.281 130.776 173.169 131.224 172.945 131.632C172.721 132.032 172.377 132.356 171.913 132.604C171.449 132.852 170.873 132.976 170.185 132.976H168.913V136H166.861V127.576H170.185C170.857 127.576 171.425 127.692 171.889 127.924C172.353 128.156 172.701 128.476 172.933 128.884C173.165 129.292 173.281 129.76 173.281 130.288ZM170.029 131.344C170.421 131.344 170.713 131.252 170.905 131.068C171.097 130.884 171.193 130.624 171.193 130.288C171.193 129.952 171.097 129.692 170.905 129.508C170.713 129.324 170.421 129.232 170.029 129.232H168.913V131.344H170.029ZM178.333 136.084C177.541 136.084 176.813 135.9 176.149 135.532C175.493 135.164 174.969 134.652 174.577 133.996C174.193 133.332 174.001 132.588 174.001 131.764C174.001 130.94 174.193 130.2 174.577 129.544C174.969 128.888 175.493 128.376 176.149 128.008C176.813 127.64 177.541 127.456 178.333 127.456C179.125 127.456 179.849 127.64 180.505 128.008C181.169 128.376 181.689 128.888 182.065 129.544C182.449 130.2 182.641 130.94 182.641 131.764C182.641 132.588 182.449 133.332 182.065 133.996C181.681 134.652 181.161 135.164 180.505 135.532C179.849 135.9 179.125 136.084 178.333 136.084ZM178.333 134.212C179.005 134.212 179.541 133.988 179.941 133.54C180.349 133.092 180.553 132.5 180.553 131.764C180.553 131.02 180.349 130.428 179.941 129.988C179.541 129.54 179.005 129.316 178.333 129.316C177.653 129.316 177.109 129.536 176.701 129.976C176.301 130.416 176.101 131.012 176.101 131.764C176.101 132.508 176.301 133.104 176.701 133.552C177.109 133.992 177.653 134.212 178.333 134.212ZM190.203 130.288C190.203 130.776 190.091 131.224 189.867 131.632C189.643 132.032 189.299 132.356 188.835 132.604C188.371 132.852 187.795 132.976 187.107 132.976H185.835V136H183.783V127.576H187.107C187.779 127.576 188.347 127.692 188.811 127.924C189.275 128.156 189.623 128.476 189.855 128.884C190.087 129.292 190.203 129.76 190.203 130.288ZM186.951 131.344C187.343 131.344 187.635 131.252 187.827 131.068C188.019 130.884 188.115 130.624 188.115 130.288C188.115 129.952 188.019 129.692 187.827 129.508C187.635 129.324 187.343 129.232 186.951 129.232H185.835V131.344H186.951ZM197.691 130.288C197.691 130.776 197.579 131.224 197.355 131.632C197.131 132.032 196.787 132.356 196.323 132.604C195.859 132.852 195.283 132.976 194.595 132.976H193.323V136H191.271V127.576H194.595C195.267 127.576 195.835 127.692 196.299 127.924C196.763 128.156 197.111 128.476 197.343 128.884C197.575 129.292 197.691 129.76 197.691 130.288ZM194.439 131.344C194.831 131.344 195.123 131.252 195.315 131.068C195.507 130.884 195.603 130.624 195.603 130.288C195.603 129.952 195.507 129.692 195.315 129.508C195.123 129.324 194.831 129.232 194.439 129.232H193.323V131.344H194.439ZM200.812 127.576V136H198.76V127.576H200.812ZM209.835 136H207.783L204.351 130.804V136H202.299V127.576H204.351L207.783 132.796V127.576H209.835V136ZM214.37 136.084C213.754 136.084 213.202 135.984 212.714 135.784C212.226 135.584 211.834 135.288 211.538 134.896C211.25 134.504 211.098 134.032 211.082 133.48H213.266C213.298 133.792 213.406 134.032 213.59 134.2C213.774 134.36 214.014 134.44 214.31 134.44C214.614 134.44 214.854 134.372 215.03 134.236C215.206 134.092 215.294 133.896 215.294 133.648C215.294 133.44 215.222 133.268 215.078 133.132C214.942 132.996 214.77 132.884 214.562 132.796C214.362 132.708 214.074 132.608 213.698 132.496C213.154 132.328 212.71 132.16 212.366 131.992C212.022 131.824 211.726 131.576 211.478 131.248C211.23 130.92 211.106 130.492 211.106 129.964C211.106 129.18 211.39 128.568 211.958 128.128C212.526 127.68 213.266 127.456 214.178 127.456C215.106 127.456 215.854 127.68 216.422 128.128C216.99 128.568 217.294 129.184 217.334 129.976H215.114C215.098 129.704 214.998 129.492 214.814 129.34C214.63 129.18 214.394 129.1 214.106 129.1C213.858 129.1 213.658 129.168 213.506 129.304C213.354 129.432 213.278 129.62 213.278 129.868C213.278 130.14 213.406 130.352 213.662 130.504C213.918 130.656 214.318 130.82 214.862 130.996C215.406 131.18 215.846 131.356 216.182 131.524C216.526 131.692 216.822 131.936 217.07 132.256C217.318 132.576 217.442 132.988 217.442 133.492C217.442 133.972 217.318 134.408 217.07 134.8C216.83 135.192 216.478 135.504 216.014 135.736C215.55 135.968 215.002 136.084 214.37 136.084Z" fill="black"/>
<path d="M116.08 168.152V185H111.976V178.064H105.592V185H101.488V168.152H105.592V174.752H111.976V168.152H116.08ZM118.203 171.296V167.48H124.851V185H120.579V171.296H118.203ZM137.208 188.096H133.104V165.44H137.208V188.096ZM144.67 181.712C145.214 181.28 145.462 181.08 145.414 181.112C146.982 179.816 148.214 178.752 149.11 177.92C150.022 177.088 150.79 176.216 151.414 175.304C152.038 174.392 152.35 173.504 152.35 172.64C152.35 171.984 152.198 171.472 151.894 171.104C151.59 170.736 151.134 170.552 150.526 170.552C149.918 170.552 149.438 170.784 149.086 171.248C148.75 171.696 148.582 172.336 148.582 173.168H144.622C144.654 171.808 144.942 170.672 145.486 169.76C146.046 168.848 146.774 168.176 147.67 167.744C148.582 167.312 149.59 167.096 150.694 167.096C152.598 167.096 154.03 167.584 154.99 168.56C155.966 169.536 156.454 170.808 156.454 172.376C156.454 174.088 155.87 175.68 154.702 177.152C153.534 178.608 152.046 180.032 150.238 181.424H156.718V184.76H144.67V181.712ZM158.621 181.88V178.568L166.205 167.72H170.789V178.328H172.757V181.88H170.789V185H166.685V181.88H158.621ZM166.973 172.232L162.941 178.328H166.973V172.232ZM179.592 181.208L176.928 188.096H174.312L175.704 181.208H179.592ZM197.352 176.36C198.328 176.568 199.112 177.056 199.704 177.824C200.296 178.576 200.592 179.44 200.592 180.416C200.592 181.824 200.096 182.944 199.104 183.776C198.128 184.592 196.76 185 195 185H187.152V168.152H194.736C196.448 168.152 197.784 168.544 198.744 169.328C199.72 170.112 200.208 171.176 200.208 172.52C200.208 173.512 199.944 174.336 199.416 174.992C198.904 175.648 198.216 176.104 197.352 176.36ZM191.256 174.968H193.944C194.616 174.968 195.128 174.824 195.48 174.536C195.848 174.232 196.032 173.792 196.032 173.216C196.032 172.64 195.848 172.2 195.48 171.896C195.128 171.592 194.616 171.44 193.944 171.44H191.256V174.968ZM194.28 181.688C194.968 181.688 195.496 181.536 195.864 181.232C196.248 180.912 196.44 180.456 196.44 179.864C196.44 179.272 196.24 178.808 195.84 178.472C195.456 178.136 194.92 177.968 194.232 177.968H191.256V181.688H194.28ZM209.068 185.192C207.756 185.192 206.572 184.912 205.516 184.352C204.476 183.792 203.652 182.992 203.044 181.952C202.452 180.912 202.156 179.696 202.156 178.304C202.156 176.928 202.46 175.72 203.068 174.68C203.676 173.624 204.508 172.816 205.564 172.256C206.62 171.696 207.804 171.416 209.116 171.416C210.428 171.416 211.612 171.696 212.668 172.256C213.724 172.816 214.556 173.624 215.164 174.68C215.772 175.72 216.076 176.928 216.076 178.304C216.076 179.68 215.764 180.896 215.14 181.952C214.532 182.992 213.692 183.792 212.62 184.352C211.564 184.912 210.38 185.192 209.068 185.192ZM209.068 181.64C209.852 181.64 210.516 181.352 211.06 180.776C211.62 180.2 211.9 179.376 211.9 178.304C211.9 177.232 211.628 176.408 211.084 175.832C210.556 175.256 209.9 174.968 209.116 174.968C208.316 174.968 207.652 175.256 207.124 175.832C206.596 176.392 206.332 177.216 206.332 178.304C206.332 179.376 206.588 180.2 207.1 180.776C207.628 181.352 208.284 181.64 209.068 181.64ZM222.358 167.24V185H218.254V167.24H222.358ZM224.516 178.28C224.516 176.904 224.772 175.696 225.284 174.656C225.812 173.616 226.524 172.816 227.42 172.256C228.316 171.696 229.316 171.416 230.42 171.416C231.3 171.416 232.1 171.6 232.82 171.968C233.556 172.336 234.132 172.832 234.548 173.456V167.24H238.652V185H234.548V183.08C234.164 183.72 233.612 184.232 232.892 184.616C232.188 185 231.364 185.192 230.42 185.192C229.316 185.192 228.316 184.912 227.42 184.352C226.524 183.776 225.812 182.968 225.284 181.928C224.772 180.872 224.516 179.656 224.516 178.28ZM234.548 178.304C234.548 177.28 234.26 176.472 233.684 175.88C233.124 175.288 232.436 174.992 231.62 174.992C230.804 174.992 230.108 175.288 229.532 175.88C228.972 176.456 228.692 177.256 228.692 178.28C228.692 179.304 228.972 180.12 229.532 180.728C230.108 181.32 230.804 181.616 231.62 181.616C232.436 181.616 233.124 181.32 233.684 180.728C234.26 180.136 234.548 179.328 234.548 178.304Z" fill="black"/>
<path d="M112.96 208.04V222H110.16V216.06H104.18V222H101.38V208.04H104.18V213.78H110.16V208.04H112.96ZM116.276 218.84C117.556 217.773 118.576 216.887 119.336 216.18C120.096 215.46 120.729 214.713 121.236 213.94C121.743 213.167 121.996 212.407 121.996 211.66C121.996 210.98 121.836 210.447 121.516 210.06C121.196 209.673 120.703 209.48 120.036 209.48C119.369 209.48 118.856 209.707 118.496 210.16C118.136 210.6 117.949 211.207 117.936 211.98H115.216C115.269 210.38 115.743 209.167 116.636 208.34C117.543 207.513 118.689 207.1 120.076 207.1C121.596 207.1 122.763 207.507 123.576 208.32C124.389 209.12 124.796 210.18 124.796 211.5C124.796 212.54 124.516 213.533 123.956 214.48C123.396 215.427 122.756 216.253 122.036 216.96C121.316 217.653 120.376 218.493 119.216 219.48H125.116V221.8H115.236V219.72L116.276 218.84ZM135.086 224.42H132.266V205.84H135.086V224.42ZM143.463 218.84C144.743 217.773 145.763 216.887 146.523 216.18C147.283 215.46 147.917 214.713 148.423 213.94C148.93 213.167 149.183 212.407 149.183 211.66C149.183 210.98 149.023 210.447 148.703 210.06C148.383 209.673 147.89 209.48 147.223 209.48C146.557 209.48 146.043 209.707 145.683 210.16C145.323 210.6 145.137 211.207 145.123 211.98H142.403C142.457 210.38 142.93 209.167 143.823 208.34C144.73 207.513 145.877 207.1 147.263 207.1C148.783 207.1 149.95 207.507 150.763 208.32C151.577 209.12 151.983 210.18 151.983 211.5C151.983 212.54 151.703 213.533 151.143 214.48C150.583 215.427 149.943 216.253 149.223 216.96C148.503 217.653 147.563 218.493 146.403 219.48H152.303V221.8H142.423V219.72L143.463 218.84ZM154.068 214.52C154.068 212.213 154.481 210.407 155.308 209.1C156.148 207.793 157.534 207.14 159.468 207.14C161.401 207.14 162.781 207.793 163.608 209.1C164.448 210.407 164.868 212.213 164.868 214.52C164.868 216.84 164.448 218.66 163.608 219.98C162.781 221.3 161.401 221.96 159.468 221.96C157.534 221.96 156.148 221.3 155.308 219.98C154.481 218.66 154.068 216.84 154.068 214.52ZM162.108 214.52C162.108 213.533 162.041 212.707 161.908 212.04C161.788 211.36 161.534 210.807 161.148 210.38C160.774 209.953 160.214 209.74 159.468 209.74C158.721 209.74 158.154 209.953 157.768 210.38C157.394 210.807 157.141 211.36 157.008 212.04C156.888 212.707 156.828 213.533 156.828 214.52C156.828 215.533 156.888 216.387 157.008 217.08C157.128 217.76 157.381 218.313 157.768 218.74C158.154 219.153 158.721 219.36 159.468 219.36C160.214 219.36 160.781 219.153 161.168 218.74C161.554 218.313 161.808 217.76 161.928 217.08C162.048 216.387 162.108 215.533 162.108 214.52ZM170.378 219.06L168.038 224.68H166.238L167.538 219.06H170.378ZM181.981 222.14C181.008 222.14 180.128 221.973 179.341 221.64C178.568 221.307 177.955 220.827 177.501 220.2C177.048 219.573 176.815 218.833 176.801 217.98H179.801C179.841 218.553 180.041 219.007 180.401 219.34C180.775 219.673 181.281 219.84 181.921 219.84C182.575 219.84 183.088 219.687 183.461 219.38C183.835 219.06 184.021 218.647 184.021 218.14C184.021 217.727 183.895 217.387 183.641 217.12C183.388 216.853 183.068 216.647 182.681 216.5C182.308 216.34 181.788 216.167 181.121 215.98C180.215 215.713 179.475 215.453 178.901 215.2C178.341 214.933 177.855 214.54 177.441 214.02C177.041 213.487 176.841 212.78 176.841 211.9C176.841 211.073 177.048 210.353 177.461 209.74C177.875 209.127 178.455 208.66 179.201 208.34C179.948 208.007 180.801 207.84 181.761 207.84C183.201 207.84 184.368 208.193 185.261 208.9C186.168 209.593 186.668 210.567 186.761 211.82H183.681C183.655 211.34 183.448 210.947 183.061 210.64C182.688 210.32 182.188 210.16 181.561 210.16C181.015 210.16 180.575 210.3 180.241 210.58C179.921 210.86 179.761 211.267 179.761 211.8C179.761 212.173 179.881 212.487 180.121 212.74C180.375 212.98 180.681 213.18 181.041 213.34C181.415 213.487 181.935 213.66 182.601 213.86C183.508 214.127 184.248 214.393 184.821 214.66C185.395 214.927 185.888 215.327 186.301 215.86C186.715 216.393 186.921 217.093 186.921 217.96C186.921 218.707 186.728 219.4 186.341 220.04C185.955 220.68 185.388 221.193 184.641 221.58C183.895 221.953 183.008 222.14 181.981 222.14ZM199.649 216.22C199.649 216.62 199.622 216.98 199.569 217.3H191.469C191.535 218.1 191.815 218.727 192.309 219.18C192.802 219.633 193.409 219.86 194.129 219.86C195.169 219.86 195.909 219.413 196.349 218.52H199.369C199.049 219.587 198.435 220.467 197.529 221.16C196.622 221.84 195.509 222.18 194.189 222.18C193.122 222.18 192.162 221.947 191.309 221.48C190.469 221 189.809 220.327 189.329 219.46C188.862 218.593 188.629 217.593 188.629 216.46C188.629 215.313 188.862 214.307 189.329 213.44C189.795 212.573 190.449 211.907 191.289 211.44C192.129 210.973 193.095 210.74 194.189 210.74C195.242 210.74 196.182 210.967 197.009 211.42C197.849 211.873 198.495 212.52 198.949 213.36C199.415 214.187 199.649 215.14 199.649 216.22ZM196.749 215.42C196.735 214.7 196.475 214.127 195.969 213.7C195.462 213.26 194.842 213.04 194.109 213.04C193.415 213.04 192.829 213.253 192.349 213.68C191.882 214.093 191.595 214.673 191.489 215.42H196.749ZM215.453 210.76C216.813 210.76 217.906 211.18 218.733 212.02C219.573 212.847 219.993 214.007 219.993 215.5V222H217.193V215.88C217.193 215.013 216.973 214.353 216.533 213.9C216.093 213.433 215.493 213.2 214.733 213.2C213.973 213.2 213.366 213.433 212.913 213.9C212.473 214.353 212.253 215.013 212.253 215.88V222H209.453V215.88C209.453 215.013 209.233 214.353 208.793 213.9C208.353 213.433 207.753 213.2 206.993 213.2C206.219 213.2 205.606 213.433 205.153 213.9C204.713 214.353 204.493 215.013 204.493 215.88V222H201.693V210.92H204.493V212.26C204.853 211.793 205.313 211.427 205.873 211.16C206.446 210.893 207.073 210.76 207.753 210.76C208.619 210.76 209.393 210.947 210.073 211.32C210.753 211.68 211.279 212.2 211.653 212.88C212.013 212.24 212.533 211.727 213.213 211.34C213.906 210.953 214.653 210.76 215.453 210.76ZM224.07 209.6C223.576 209.6 223.163 209.447 222.83 209.14C222.51 208.82 222.35 208.427 222.35 207.96C222.35 207.493 222.51 207.107 222.83 206.8C223.163 206.48 223.576 206.32 224.07 206.32C224.563 206.32 224.97 206.48 225.29 206.8C225.623 207.107 225.79 207.493 225.79 207.96C225.79 208.427 225.623 208.82 225.29 209.14C224.97 209.447 224.563 209.6 224.07 209.6ZM225.45 210.92V222H222.65V210.92H225.45ZM231.016 212.54C231.376 212.007 231.869 211.573 232.496 211.24C233.136 210.907 233.863 210.74 234.676 210.74C235.623 210.74 236.476 210.973 237.236 211.44C238.009 211.907 238.616 212.573 239.056 213.44C239.509 214.293 239.736 215.287 239.736 216.42C239.736 217.553 239.509 218.56 239.056 219.44C238.616 220.307 238.009 220.98 237.236 221.46C236.476 221.94 235.623 222.18 234.676 222.18C233.849 222.18 233.123 222.02 232.496 221.7C231.883 221.367 231.389 220.94 231.016 220.42V222H228.216V207.2H231.016V212.54ZM236.876 216.42C236.876 215.753 236.736 215.18 236.456 214.7C236.189 214.207 235.829 213.833 235.376 213.58C234.936 213.327 234.456 213.2 233.936 213.2C233.429 213.2 232.949 213.333 232.496 213.6C232.056 213.853 231.696 214.227 231.416 214.72C231.149 215.213 231.016 215.793 231.016 216.46C231.016 217.127 231.149 217.707 231.416 218.2C231.696 218.693 232.056 219.073 232.496 219.34C232.949 219.593 233.429 219.72 233.936 219.72C234.456 219.72 234.936 219.587 235.376 219.32C235.829 219.053 236.189 218.673 236.456 218.18C236.736 217.687 236.876 217.1 236.876 216.42ZM246.691 222.18C245.624 222.18 244.664 221.947 243.811 221.48C242.957 221 242.284 220.327 241.791 219.46C241.311 218.593 241.071 217.593 241.071 216.46C241.071 215.327 241.317 214.327 241.811 213.46C242.317 212.593 243.004 211.927 243.871 211.46C244.737 210.98 245.704 210.74 246.771 210.74C247.837 210.74 248.804 210.98 249.671 211.46C250.537 211.927 251.217 212.593 251.711 213.46C252.217 214.327 252.471 215.327 252.471 216.46C252.471 217.593 252.211 218.593 251.691 219.46C251.184 220.327 250.491 221 249.611 221.48C248.744 221.947 247.771 222.18 246.691 222.18ZM246.691 219.74C247.197 219.74 247.671 219.62 248.111 219.38C248.564 219.127 248.924 218.753 249.191 218.26C249.457 217.767 249.591 217.167 249.591 216.46C249.591 215.407 249.311 214.6 248.751 214.04C248.204 213.467 247.531 213.18 246.731 213.18C245.931 213.18 245.257 213.467 244.711 214.04C244.177 214.6 243.911 215.407 243.911 216.46C243.911 217.513 244.171 218.327 244.691 218.9C245.224 219.46 245.891 219.74 246.691 219.74ZM257.325 207.2V222H254.525V207.2H257.325ZM259.371 216.42C259.371 215.3 259.591 214.307 260.031 213.44C260.484 212.573 261.098 211.907 261.871 211.44C262.644 210.973 263.504 210.74 264.451 210.74C265.171 210.74 265.858 210.9 266.511 211.22C267.164 211.527 267.684 211.94 268.071 212.46V207.2H270.911V222H268.071V220.36C267.724 220.907 267.238 221.347 266.611 221.68C265.984 222.013 265.258 222.18 264.431 222.18C263.498 222.18 262.644 221.94 261.871 221.46C261.098 220.98 260.484 220.307 260.031 219.44C259.591 218.56 259.371 217.553 259.371 216.42ZM268.091 216.46C268.091 215.78 267.958 215.2 267.691 214.72C267.424 214.227 267.064 213.853 266.611 213.6C266.158 213.333 265.671 213.2 265.151 213.2C264.631 213.2 264.151 213.327 263.711 213.58C263.271 213.833 262.911 214.207 262.631 214.7C262.364 215.18 262.231 215.753 262.231 216.42C262.231 217.087 262.364 217.673 262.631 218.18C262.911 218.673 263.271 219.053 263.711 219.32C264.164 219.587 264.644 219.72 265.151 219.72C265.671 219.72 266.158 219.593 266.611 219.34C267.064 219.073 267.424 218.7 267.691 218.22C267.958 217.727 268.091 217.14 268.091 216.46Z" fill="black"/>
<path d="M112.06 242.364V255H108.982V249.798H104.194V255H101.116V242.364H104.194V247.314H108.982V242.364H112.06ZM114.084 245.568C114.132 244.284 114.552 243.294 115.344 242.598C116.136 241.902 117.21 241.554 118.566 241.554C119.466 241.554 120.234 241.71 120.87 242.022C121.518 242.334 122.004 242.76 122.328 243.3C122.664 243.84 122.832 244.446 122.832 245.118C122.832 245.91 122.634 246.558 122.238 247.062C121.842 247.554 121.38 247.89 120.852 248.07V248.142C121.536 248.37 122.076 248.748 122.472 249.276C122.868 249.804 123.066 250.482 123.066 251.31C123.066 252.054 122.892 252.714 122.544 253.29C122.208 253.854 121.71 254.298 121.05 254.622C120.402 254.946 119.628 255.108 118.728 255.108C117.288 255.108 116.136 254.754 115.272 254.046C114.42 253.338 113.97 252.27 113.922 250.842H116.91C116.922 251.37 117.072 251.79 117.36 252.102C117.648 252.402 118.068 252.552 118.62 252.552C119.088 252.552 119.448 252.42 119.7 252.156C119.964 251.88 120.096 251.52 120.096 251.076C120.096 250.5 119.91 250.086 119.538 249.834C119.178 249.57 118.596 249.438 117.792 249.438H117.216V246.936H117.792C118.404 246.936 118.896 246.834 119.268 246.63C119.652 246.414 119.844 246.036 119.844 245.496C119.844 245.064 119.724 244.728 119.484 244.488C119.244 244.248 118.914 244.128 118.494 244.128C118.038 244.128 117.696 244.266 117.468 244.542C117.252 244.818 117.126 245.16 117.09 245.568H114.084ZM132.037 257.322H128.959V240.33H132.037V257.322ZM137.418 244.722V241.86H142.404V255H139.2V244.722H137.418ZM146.669 247.944C145.541 247.344 144.977 246.402 144.977 245.118C144.977 244.47 145.145 243.882 145.481 243.354C145.817 242.814 146.327 242.388 147.011 242.076C147.695 241.752 148.535 241.59 149.531 241.59C150.527 241.59 151.361 241.752 152.033 242.076C152.717 242.388 153.227 242.814 153.563 243.354C153.899 243.882 154.067 244.47 154.067 245.118C154.067 245.766 153.911 246.33 153.599 246.81C153.299 247.29 152.891 247.668 152.375 247.944C153.023 248.256 153.521 248.688 153.869 249.24C154.217 249.78 154.391 250.416 154.391 251.148C154.391 252 154.175 252.738 153.743 253.362C153.311 253.974 152.723 254.442 151.979 254.766C151.247 255.09 150.431 255.252 149.531 255.252C148.631 255.252 147.809 255.09 147.065 254.766C146.333 254.442 145.751 253.974 145.319 253.362C144.887 252.738 144.671 252 144.671 251.148C144.671 250.404 144.845 249.762 145.193 249.222C145.541 248.67 146.033 248.244 146.669 247.944ZM151.079 245.586C151.079 245.094 150.935 244.716 150.647 244.452C150.371 244.176 149.999 244.038 149.531 244.038C149.063 244.038 148.685 244.176 148.397 244.452C148.121 244.728 147.983 245.112 147.983 245.604C147.983 246.072 148.127 246.444 148.415 246.72C148.703 246.984 149.075 247.116 149.531 247.116C149.987 247.116 150.359 246.978 150.647 246.702C150.935 246.426 151.079 246.054 151.079 245.586ZM149.531 249.276C148.967 249.276 148.511 249.432 148.163 249.744C147.815 250.044 147.641 250.464 147.641 251.004C147.641 251.508 147.809 251.922 148.145 252.246C148.493 252.57 148.955 252.732 149.531 252.732C150.107 252.732 150.557 252.57 150.881 252.246C151.217 251.922 151.385 251.508 151.385 251.004C151.385 250.476 151.211 250.056 150.863 249.744C150.527 249.432 150.083 249.276 149.531 249.276ZM159.799 252.156L157.801 257.322H155.839L156.883 252.156H159.799ZM173.12 248.52C173.852 248.676 174.44 249.042 174.884 249.618C175.328 250.182 175.55 250.83 175.55 251.562C175.55 252.618 175.178 253.458 174.434 254.082C173.702 254.694 172.676 255 171.356 255H165.47V242.364H171.158C172.442 242.364 173.444 242.658 174.164 243.246C174.896 243.834 175.262 244.632 175.262 245.64C175.262 246.384 175.064 247.002 174.668 247.494C174.284 247.986 173.768 248.328 173.12 248.52ZM168.548 247.476H170.564C171.068 247.476 171.452 247.368 171.716 247.152C171.992 246.924 172.13 246.594 172.13 246.162C172.13 245.73 171.992 245.4 171.716 245.172C171.452 244.944 171.068 244.83 170.564 244.83H168.548V247.476ZM170.816 252.516C171.332 252.516 171.728 252.402 172.004 252.174C172.292 251.934 172.436 251.592 172.436 251.148C172.436 250.704 172.286 250.356 171.986 250.104C171.698 249.852 171.296 249.726 170.78 249.726H168.548V252.516H170.816ZM181.907 255.144C180.923 255.144 180.035 254.934 179.243 254.514C178.463 254.094 177.845 253.494 177.389 252.714C176.945 251.934 176.723 251.022 176.723 249.978C176.723 248.946 176.951 248.04 177.407 247.26C177.863 246.468 178.487 245.862 179.279 245.442C180.071 245.022 180.959 244.812 181.943 244.812C182.927 244.812 183.815 245.022 184.607 245.442C185.399 245.862 186.023 246.468 186.479 247.26C186.935 248.04 187.163 248.946 187.163 249.978C187.163 251.01 186.929 251.922 186.461 252.714C186.005 253.494 185.375 254.094 184.571 254.514C183.779 254.934 182.891 255.144 181.907 255.144ZM181.907 252.48C182.495 252.48 182.993 252.264 183.401 251.832C183.821 251.4 184.031 250.782 184.031 249.978C184.031 249.174 183.827 248.556 183.419 248.124C183.023 247.692 182.531 247.476 181.943 247.476C181.343 247.476 180.845 247.692 180.449 248.124C180.053 248.544 179.855 249.162 179.855 249.978C179.855 250.782 180.047 251.4 180.431 251.832C180.827 252.264 181.319 252.48 181.907 252.48ZM191.874 241.68V255H188.796V241.68H191.874ZM193.492 249.96C193.492 248.928 193.684 248.022 194.068 247.242C194.464 246.462 194.998 245.862 195.67 245.442C196.342 245.022 197.092 244.812 197.92 244.812C198.58 244.812 199.18 244.95 199.72 245.226C200.272 245.502 200.704 245.874 201.016 246.342V241.68H204.094V255H201.016V253.56C200.728 254.04 200.314 254.424 199.774 254.712C199.246 255 198.628 255.144 197.92 255.144C197.092 255.144 196.342 254.934 195.67 254.514C194.998 254.082 194.464 253.476 194.068 252.696C193.684 251.904 193.492 250.992 193.492 249.96ZM201.016 249.978C201.016 249.21 200.8 248.604 200.368 248.16C199.948 247.716 199.432 247.494 198.82 247.494C198.208 247.494 197.686 247.716 197.254 248.16C196.834 248.592 196.624 249.192 196.624 249.96C196.624 250.728 196.834 251.34 197.254 251.796C197.686 252.24 198.208 252.462 198.82 252.462C199.432 252.462 199.948 252.24 200.368 251.796C200.8 251.352 201.016 250.746 201.016 249.978Z" fill="black"/>
<path d="M105.964 302.974C106.319 303.03 106.641 303.175 106.93 303.408C107.229 303.641 107.462 303.931 107.63 304.276C107.807 304.621 107.896 304.99 107.896 305.382C107.896 305.877 107.77 306.325 107.518 306.726C107.266 307.118 106.897 307.431 106.412 307.664C105.936 307.888 105.371 308 104.718 308H101.078V298.242H104.578C105.241 298.242 105.805 298.354 106.272 298.578C106.739 298.793 107.089 299.087 107.322 299.46C107.555 299.833 107.672 300.253 107.672 300.72C107.672 301.299 107.513 301.779 107.196 302.162C106.888 302.535 106.477 302.806 105.964 302.974ZM102.352 302.456H104.494C105.091 302.456 105.553 302.316 105.88 302.036C106.207 301.756 106.37 301.369 106.37 300.874C106.37 300.379 106.207 299.992 105.88 299.712C105.553 299.432 105.082 299.292 104.466 299.292H102.352V302.456ZM104.606 306.95C105.241 306.95 105.735 306.801 106.09 306.502C106.445 306.203 106.622 305.788 106.622 305.256C106.622 304.715 106.435 304.29 106.062 303.982C105.689 303.665 105.189 303.506 104.564 303.506H102.352V306.95H104.606ZM113.01 308.126C112.291 308.126 111.638 307.963 111.05 307.636C110.471 307.309 110.014 306.847 109.678 306.25C109.351 305.643 109.188 304.943 109.188 304.15C109.188 303.366 109.356 302.675 109.692 302.078C110.037 301.471 110.504 301.009 111.092 300.692C111.68 300.365 112.338 300.202 113.066 300.202C113.794 300.202 114.452 300.365 115.04 300.692C115.628 301.009 116.09 301.467 116.426 302.064C116.771 302.661 116.944 303.357 116.944 304.15C116.944 304.943 116.767 305.643 116.412 306.25C116.067 306.847 115.595 307.309 114.998 307.636C114.401 307.963 113.738 308.126 113.01 308.126ZM113.01 307.006C113.467 307.006 113.897 306.899 114.298 306.684C114.699 306.469 115.021 306.147 115.264 305.718C115.516 305.289 115.642 304.766 115.642 304.15C115.642 303.534 115.521 303.011 115.278 302.582C115.035 302.153 114.718 301.835 114.326 301.63C113.934 301.415 113.509 301.308 113.052 301.308C112.585 301.308 112.156 301.415 111.764 301.63C111.381 301.835 111.073 302.153 110.84 302.582C110.607 303.011 110.49 303.534 110.49 304.15C110.49 304.775 110.602 305.303 110.826 305.732C111.059 306.161 111.367 306.483 111.75 306.698C112.133 306.903 112.553 307.006 113.01 307.006ZM118.143 304.136C118.143 303.352 118.302 302.666 118.619 302.078C118.936 301.481 119.37 301.019 119.921 300.692C120.481 300.365 121.106 300.202 121.797 300.202C122.394 300.202 122.95 300.342 123.463 300.622C123.976 300.893 124.368 301.252 124.639 301.7V297.64H125.927V308H124.639V306.558C124.387 307.015 124.014 307.393 123.519 307.692C123.024 307.981 122.446 308.126 121.783 308.126C121.102 308.126 120.481 307.958 119.921 307.622C119.37 307.286 118.936 306.815 118.619 306.208C118.302 305.601 118.143 304.911 118.143 304.136ZM124.639 304.15C124.639 303.571 124.522 303.067 124.289 302.638C124.056 302.209 123.738 301.882 123.337 301.658C122.945 301.425 122.511 301.308 122.035 301.308C121.559 301.308 121.125 301.42 120.733 301.644C120.341 301.868 120.028 302.195 119.795 302.624C119.562 303.053 119.445 303.557 119.445 304.136C119.445 304.724 119.562 305.237 119.795 305.676C120.028 306.105 120.341 306.437 120.733 306.67C121.125 306.894 121.559 307.006 122.035 307.006C122.511 307.006 122.945 306.894 123.337 306.67C123.738 306.437 124.056 306.105 124.289 305.676C124.522 305.237 124.639 304.729 124.639 304.15ZM134.688 300.328L130.068 311.612H128.752L130.264 307.916L127.17 300.328H128.584L130.992 306.544L133.372 300.328H134.688ZM141.297 309.484H140.023V296.87H141.297V309.484ZM146.962 299.04V297.878H149.594V308H148.306V299.04H146.962ZM151.474 305.746V304.78L156.388 297.976H157.914V304.64H159.314V305.746H157.914V308H156.654V305.746H151.474ZM156.71 299.306L152.944 304.64H156.71V299.306ZM162.113 306.236L160.545 310.002H159.691L160.713 306.236H162.113ZM172.443 308L170.119 304.01H168.579V308H167.305V298.242H170.455C171.192 298.242 171.813 298.368 172.317 298.62C172.83 298.872 173.213 299.213 173.465 299.642C173.717 300.071 173.843 300.561 173.843 301.112C173.843 301.784 173.647 302.377 173.255 302.89C172.872 303.403 172.293 303.744 171.519 303.912L173.969 308H172.443ZM168.579 302.988H170.455C171.145 302.988 171.663 302.82 172.009 302.484C172.354 302.139 172.527 301.681 172.527 301.112C172.527 300.533 172.354 300.085 172.009 299.768C171.673 299.451 171.155 299.292 170.455 299.292H168.579V302.988ZM182.822 303.87C182.822 304.113 182.808 304.369 182.78 304.64H176.648C176.695 305.396 176.951 305.989 177.418 306.418C177.894 306.838 178.468 307.048 179.14 307.048C179.691 307.048 180.148 306.922 180.512 306.67C180.885 306.409 181.147 306.063 181.296 305.634H182.668C182.463 306.371 182.052 306.973 181.436 307.44C180.82 307.897 180.055 308.126 179.14 308.126C178.412 308.126 177.759 307.963 177.18 307.636C176.611 307.309 176.163 306.847 175.836 306.25C175.509 305.643 175.346 304.943 175.346 304.15C175.346 303.357 175.505 302.661 175.822 302.064C176.139 301.467 176.583 301.009 177.152 300.692C177.731 300.365 178.393 300.202 179.14 300.202C179.868 300.202 180.512 300.361 181.072 300.678C181.632 300.995 182.061 301.434 182.36 301.994C182.668 302.545 182.822 303.17 182.822 303.87ZM181.506 303.604C181.506 303.119 181.399 302.703 181.184 302.358C180.969 302.003 180.675 301.737 180.302 301.56C179.938 301.373 179.532 301.28 179.084 301.28C178.44 301.28 177.889 301.485 177.432 301.896C176.984 302.307 176.727 302.876 176.662 303.604H181.506ZM187.668 300.202C188.33 300.202 188.909 300.347 189.404 300.636C189.908 300.925 190.281 301.289 190.524 301.728V300.328H191.812V308.168C191.812 308.868 191.662 309.489 191.364 310.03C191.065 310.581 190.636 311.01 190.076 311.318C189.525 311.626 188.881 311.78 188.144 311.78C187.136 311.78 186.296 311.542 185.624 311.066C184.952 310.59 184.555 309.941 184.434 309.12H185.694C185.834 309.587 186.123 309.96 186.562 310.24C187 310.529 187.528 310.674 188.144 310.674C188.844 310.674 189.413 310.455 189.852 310.016C190.3 309.577 190.524 308.961 190.524 308.168V306.558C190.272 307.006 189.898 307.379 189.404 307.678C188.909 307.977 188.33 308.126 187.668 308.126C186.986 308.126 186.366 307.958 185.806 307.622C185.255 307.286 184.821 306.815 184.504 306.208C184.186 305.601 184.028 304.911 184.028 304.136C184.028 303.352 184.186 302.666 184.504 302.078C184.821 301.481 185.255 301.019 185.806 300.692C186.366 300.365 186.986 300.202 187.668 300.202ZM190.524 304.15C190.524 303.571 190.407 303.067 190.174 302.638C189.94 302.209 189.623 301.882 189.222 301.658C188.83 301.425 188.396 301.308 187.92 301.308C187.444 301.308 187.01 301.42 186.618 301.644C186.226 301.868 185.913 302.195 185.68 302.624C185.446 303.053 185.33 303.557 185.33 304.136C185.33 304.724 185.446 305.237 185.68 305.676C185.913 306.105 186.226 306.437 186.618 306.67C187.01 306.894 187.444 307.006 187.92 307.006C188.396 307.006 188.83 306.894 189.222 306.67C189.623 306.437 189.94 306.105 190.174 305.676C190.407 305.237 190.524 304.729 190.524 304.15ZM200.769 300.328V308H199.495V306.866C199.252 307.258 198.911 307.566 198.473 307.79C198.043 308.005 197.567 308.112 197.045 308.112C196.447 308.112 195.911 307.991 195.435 307.748C194.959 307.496 194.581 307.123 194.301 306.628C194.03 306.133 193.895 305.531 193.895 304.822V300.328H195.155V304.654C195.155 305.41 195.346 305.993 195.729 306.404C196.111 306.805 196.634 307.006 197.297 307.006C197.978 307.006 198.515 306.796 198.907 306.376C199.299 305.956 199.495 305.345 199.495 304.542V300.328H200.769ZM204.194 297.64V308H202.92V297.64H204.194ZM205.889 304.136C205.889 303.352 206.048 302.666 206.365 302.078C206.682 301.481 207.116 301.019 207.667 300.692C208.227 300.365 208.848 300.202 209.529 300.202C210.201 300.202 210.784 300.347 211.279 300.636C211.774 300.925 212.142 301.289 212.385 301.728V300.328H213.673V308H212.385V306.572C212.133 307.02 211.755 307.393 211.251 307.692C210.756 307.981 210.178 308.126 209.515 308.126C208.834 308.126 208.218 307.958 207.667 307.622C207.116 307.286 206.682 306.815 206.365 306.208C206.048 305.601 205.889 304.911 205.889 304.136ZM212.385 304.15C212.385 303.571 212.268 303.067 212.035 302.638C211.802 302.209 211.484 301.882 211.083 301.658C210.691 301.425 210.257 301.308 209.781 301.308C209.305 301.308 208.871 301.42 208.479 301.644C208.087 301.868 207.774 302.195 207.541 302.624C207.308 303.053 207.191 303.557 207.191 304.136C207.191 304.724 207.308 305.237 207.541 305.676C207.774 306.105 208.087 306.437 208.479 306.67C208.871 306.894 209.305 307.006 209.781 307.006C210.257 307.006 210.691 306.894 211.083 306.67C211.484 306.437 211.802 306.105 212.035 305.676C212.268 305.237 212.385 304.729 212.385 304.15ZM217.1 301.574C217.324 301.135 217.641 300.795 218.052 300.552C218.472 300.309 218.981 300.188 219.578 300.188V301.504H219.242C217.814 301.504 217.1 302.279 217.1 303.828V308H215.826V300.328H217.1V301.574Z" fill="black"/>
<path d="M107.616 272.228V273.81H105.012V282H103.052V273.81H100.448V272.228H107.616ZM115.038 280.138H111.146L110.502 282H108.444L111.958 272.214H114.24L117.754 282H115.682L115.038 280.138ZM114.506 278.57L113.092 274.482L111.678 278.57H114.506ZM124.612 276.988C125.162 277.091 125.615 277.366 125.97 277.814C126.324 278.262 126.502 278.775 126.502 279.354C126.502 279.877 126.371 280.339 126.11 280.74C125.858 281.132 125.489 281.44 125.004 281.664C124.518 281.888 123.944 282 123.282 282H119.068V272.228H123.1C123.762 272.228 124.332 272.335 124.808 272.55C125.293 272.765 125.657 273.063 125.9 273.446C126.152 273.829 126.278 274.263 126.278 274.748C126.278 275.317 126.124 275.793 125.816 276.176C125.517 276.559 125.116 276.829 124.612 276.988ZM121.028 276.26H122.82C123.286 276.26 123.646 276.157 123.898 275.952C124.15 275.737 124.276 275.434 124.276 275.042C124.276 274.65 124.15 274.347 123.898 274.132C123.646 273.917 123.286 273.81 122.82 273.81H121.028V276.26ZM123.002 280.404C123.478 280.404 123.846 280.292 124.108 280.068C124.378 279.844 124.514 279.527 124.514 279.116C124.514 278.696 124.374 278.369 124.094 278.136C123.814 277.893 123.436 277.772 122.96 277.772H121.028V280.404H123.002ZM131.438 282.098C130.756 282.098 130.14 281.981 129.59 281.748C129.048 281.515 128.619 281.179 128.302 280.74C127.984 280.301 127.821 279.783 127.812 279.186H129.912C129.94 279.587 130.08 279.905 130.332 280.138C130.593 280.371 130.948 280.488 131.396 280.488C131.853 280.488 132.212 280.381 132.474 280.166C132.735 279.942 132.866 279.653 132.866 279.298C132.866 279.009 132.777 278.771 132.6 278.584C132.422 278.397 132.198 278.253 131.928 278.15C131.666 278.038 131.302 277.917 130.836 277.786C130.201 277.599 129.683 277.417 129.282 277.24C128.89 277.053 128.549 276.778 128.26 276.414C127.98 276.041 127.84 275.546 127.84 274.93C127.84 274.351 127.984 273.847 128.274 273.418C128.563 272.989 128.969 272.662 129.492 272.438C130.014 272.205 130.612 272.088 131.284 272.088C132.292 272.088 133.108 272.335 133.734 272.83C134.368 273.315 134.718 273.997 134.784 274.874H132.628C132.609 274.538 132.464 274.263 132.194 274.048C131.932 273.824 131.582 273.712 131.144 273.712C130.761 273.712 130.453 273.81 130.22 274.006C129.996 274.202 129.884 274.487 129.884 274.86C129.884 275.121 129.968 275.341 130.136 275.518C130.313 275.686 130.528 275.826 130.78 275.938C131.041 276.041 131.405 276.162 131.872 276.302C132.506 276.489 133.024 276.675 133.426 276.862C133.827 277.049 134.172 277.329 134.462 277.702C134.751 278.075 134.896 278.565 134.896 279.172C134.896 279.695 134.76 280.18 134.49 280.628C134.219 281.076 133.822 281.435 133.3 281.706C132.777 281.967 132.156 282.098 131.438 282.098ZM142.115 283.694H140.141V270.688H142.115V283.694ZM147.125 273.6V271.794H150.499V282H148.483V273.6H147.125ZM152.351 280.012V278.472L156.929 271.92H159.211V278.304H160.443V280.012H159.211V282H157.251V280.012H152.351ZM157.377 274.02L154.507 278.304H157.377V274.02ZM164.057 279.942L162.419 283.876H161.159L162.069 279.942H164.057ZM172.18 282.098C171.499 282.098 170.883 281.981 170.332 281.748C169.791 281.515 169.361 281.179 169.044 280.74C168.727 280.301 168.563 279.783 168.554 279.186H170.654C170.682 279.587 170.822 279.905 171.074 280.138C171.335 280.371 171.69 280.488 172.138 280.488C172.595 280.488 172.955 280.381 173.216 280.166C173.477 279.942 173.608 279.653 173.608 279.298C173.608 279.009 173.519 278.771 173.342 278.584C173.165 278.397 172.941 278.253 172.67 278.15C172.409 278.038 172.045 277.917 171.578 277.786C170.943 277.599 170.425 277.417 170.024 277.24C169.632 277.053 169.291 276.778 169.002 276.414C168.722 276.041 168.582 275.546 168.582 274.93C168.582 274.351 168.727 273.847 169.016 273.418C169.305 272.989 169.711 272.662 170.234 272.438C170.757 272.205 171.354 272.088 172.026 272.088C173.034 272.088 173.851 272.335 174.476 272.83C175.111 273.315 175.461 273.997 175.526 274.874H173.37C173.351 274.538 173.207 274.263 172.936 274.048C172.675 273.824 172.325 273.712 171.886 273.712C171.503 273.712 171.195 273.81 170.962 274.006C170.738 274.202 170.626 274.487 170.626 274.86C170.626 275.121 170.71 275.341 170.878 275.518C171.055 275.686 171.27 275.826 171.522 275.938C171.783 276.041 172.147 276.162 172.614 276.302C173.249 276.489 173.767 276.675 174.168 276.862C174.569 277.049 174.915 277.329 175.204 277.702C175.493 278.075 175.638 278.565 175.638 279.172C175.638 279.695 175.503 280.18 175.232 280.628C174.961 281.076 174.565 281.435 174.042 281.706C173.519 281.967 172.899 282.098 172.18 282.098ZM179.297 273.81V276.26H182.587V277.814H179.297V280.404H183.007V282H177.337V272.214H183.007V273.81H179.297ZM195.442 272.228V282H193.482V275.644L190.864 282H189.38L186.748 275.644V282H184.788V272.228H187.014L190.122 279.494L193.23 272.228H195.442ZM199.34 272.228V282H197.38V272.228H199.34ZM206.821 276.988C207.371 277.091 207.824 277.366 208.179 277.814C208.533 278.262 208.711 278.775 208.711 279.354C208.711 279.877 208.58 280.339 208.319 280.74C208.067 281.132 207.698 281.44 207.213 281.664C206.727 281.888 206.153 282 205.491 282H201.277V272.228H205.309C205.971 272.228 206.541 272.335 207.017 272.55C207.502 272.765 207.866 273.063 208.109 273.446C208.361 273.829 208.487 274.263 208.487 274.748C208.487 275.317 208.333 275.793 208.025 276.176C207.726 276.559 207.325 276.829 206.821 276.988ZM203.237 276.26H205.029C205.495 276.26 205.855 276.157 206.107 275.952C206.359 275.737 206.485 275.434 206.485 275.042C206.485 274.65 206.359 274.347 206.107 274.132C205.855 273.917 205.495 273.81 205.029 273.81H203.237V276.26ZM205.211 280.404C205.687 280.404 206.055 280.292 206.317 280.068C206.587 279.844 206.723 279.527 206.723 279.116C206.723 278.696 206.583 278.369 206.303 278.136C206.023 277.893 205.645 277.772 205.169 277.772H203.237V280.404H205.211ZM214.809 282.098C213.894 282.098 213.054 281.883 212.289 281.454C211.523 281.025 210.917 280.432 210.469 279.676C210.021 278.911 209.797 278.047 209.797 277.086C209.797 276.134 210.021 275.28 210.469 274.524C210.917 273.759 211.523 273.161 212.289 272.732C213.054 272.303 213.894 272.088 214.809 272.088C215.733 272.088 216.573 272.303 217.329 272.732C218.094 273.161 218.696 273.759 219.135 274.524C219.583 275.28 219.807 276.134 219.807 277.086C219.807 278.047 219.583 278.911 219.135 279.676C218.696 280.432 218.094 281.025 217.329 281.454C216.563 281.883 215.723 282.098 214.809 282.098ZM214.809 280.348C215.397 280.348 215.915 280.217 216.363 279.956C216.811 279.685 217.161 279.303 217.413 278.808C217.665 278.313 217.791 277.739 217.791 277.086C217.791 276.433 217.665 275.863 217.413 275.378C217.161 274.883 216.811 274.505 216.363 274.244C215.915 273.983 215.397 273.852 214.809 273.852C214.221 273.852 213.698 273.983 213.241 274.244C212.793 274.505 212.443 274.883 212.191 275.378C211.939 275.863 211.813 276.433 211.813 277.086C211.813 277.739 211.939 278.313 212.191 278.808C212.443 279.303 212.793 279.685 213.241 279.956C213.698 280.217 214.221 280.348 214.809 280.348ZM223.225 280.446H226.445V282H221.265V272.228H223.225V280.446ZM231.107 272.228C232.133 272.228 233.034 272.429 233.809 272.83C234.593 273.231 235.195 273.805 235.615 274.552C236.044 275.289 236.259 276.148 236.259 277.128C236.259 278.108 236.044 278.967 235.615 279.704C235.195 280.432 234.593 280.997 233.809 281.398C233.034 281.799 232.133 282 231.107 282H227.691V272.228H231.107ZM231.037 280.334C232.063 280.334 232.857 280.054 233.417 279.494C233.977 278.934 234.257 278.145 234.257 277.128C234.257 276.111 233.977 275.317 233.417 274.748C232.857 274.169 232.063 273.88 231.037 273.88H229.651V280.334H231.037ZM244.45 284.758C243.544 283.881 242.84 282.761 242.336 281.398C241.841 280.035 241.594 278.575 241.594 277.016C241.594 275.42 241.855 273.922 242.378 272.522C242.9 271.113 243.661 269.96 244.66 269.064H246.634V269.246C245.607 270.226 244.823 271.402 244.282 272.774C243.75 274.146 243.484 275.56 243.484 277.016C243.484 278.435 243.736 279.807 244.24 281.132C244.753 282.448 245.481 283.591 246.424 284.562V284.758H244.45ZM253.849 280.138H249.957L249.313 282H247.255L250.769 272.214H253.051L256.565 282H254.493L253.849 280.138ZM253.317 278.57L251.903 274.482L250.489 278.57H253.317ZM259.838 280.446H263.058V282H257.878V272.228H259.838V280.446ZM266.264 280.446H269.484V282H264.304V272.228H266.264V280.446ZM273.59 277.1C273.59 276.139 273.804 275.28 274.234 274.524C274.672 273.759 275.265 273.166 276.012 272.746C276.768 272.317 277.612 272.102 278.546 272.102C279.638 272.102 280.594 272.382 281.416 272.942C282.237 273.502 282.811 274.277 283.138 275.266H280.884C280.66 274.799 280.342 274.449 279.932 274.216C279.53 273.983 279.064 273.866 278.532 273.866C277.962 273.866 277.454 274.001 277.006 274.272C276.567 274.533 276.222 274.907 275.97 275.392C275.727 275.877 275.606 276.447 275.606 277.1C275.606 277.744 275.727 278.313 275.97 278.808C276.222 279.293 276.567 279.671 277.006 279.942C277.454 280.203 277.962 280.334 278.532 280.334C279.064 280.334 279.53 280.217 279.932 279.984C280.342 279.741 280.66 279.387 280.884 278.92H283.138C282.811 279.919 282.237 280.698 281.416 281.258C280.604 281.809 279.647 282.084 278.546 282.084C277.612 282.084 276.768 281.874 276.012 281.454C275.265 281.025 274.672 280.432 274.234 279.676C273.804 278.92 273.59 278.061 273.59 277.1ZM290.804 280.138H286.912L286.268 282H284.21L287.724 272.214H290.006L293.52 282H291.448L290.804 280.138ZM290.272 278.57L288.858 274.482L287.444 278.57H290.272ZM301.959 275.252C301.959 275.775 301.833 276.265 301.581 276.722C301.339 277.179 300.951 277.548 300.419 277.828C299.897 278.108 299.234 278.248 298.431 278.248H296.793V282H294.833V272.228H298.431C299.187 272.228 299.831 272.359 300.363 272.62C300.895 272.881 301.292 273.241 301.553 273.698C301.824 274.155 301.959 274.673 301.959 275.252ZM298.347 276.666C298.889 276.666 299.29 276.545 299.551 276.302C299.813 276.05 299.943 275.7 299.943 275.252C299.943 274.3 299.411 273.824 298.347 273.824H296.793V276.666H298.347ZM306.725 282.098C306.043 282.098 305.427 281.981 304.877 281.748C304.335 281.515 303.906 281.179 303.589 280.74C303.271 280.301 303.108 279.783 303.099 279.186H305.199C305.227 279.587 305.367 279.905 305.619 280.138C305.88 280.371 306.235 280.488 306.683 280.488C307.14 280.488 307.499 280.381 307.761 280.166C308.022 279.942 308.153 279.653 308.153 279.298C308.153 279.009 308.064 278.771 307.887 278.584C307.709 278.397 307.485 278.253 307.215 278.15C306.953 278.038 306.589 277.917 306.123 277.786C305.488 277.599 304.97 277.417 304.569 277.24C304.177 277.053 303.836 276.778 303.547 276.414C303.267 276.041 303.127 275.546 303.127 274.93C303.127 274.351 303.271 273.847 303.561 273.418C303.85 272.989 304.256 272.662 304.779 272.438C305.301 272.205 305.899 272.088 306.571 272.088C307.579 272.088 308.395 272.335 309.021 272.83C309.655 273.315 310.005 273.997 310.071 274.874H307.915C307.896 274.538 307.751 274.263 307.481 274.048C307.219 273.824 306.869 273.712 306.431 273.712C306.048 273.712 305.74 273.81 305.507 274.006C305.283 274.202 305.171 274.487 305.171 274.86C305.171 275.121 305.255 275.341 305.423 275.518C305.6 275.686 305.815 275.826 306.067 275.938C306.328 276.041 306.692 276.162 307.159 276.302C307.793 276.489 308.311 276.675 308.713 276.862C309.114 277.049 309.459 277.329 309.749 277.702C310.038 278.075 310.183 278.565 310.183 279.172C310.183 279.695 310.047 280.18 309.777 280.628C309.506 281.076 309.109 281.435 308.587 281.706C308.064 281.967 307.443 282.098 306.725 282.098ZM311.378 284.758V284.562C312.321 283.591 313.044 282.448 313.548 281.132C314.061 279.807 314.318 278.435 314.318 277.016C314.318 275.56 314.047 274.146 313.506 272.774C312.974 271.402 312.195 270.226 311.168 269.246V269.064H313.142C314.141 269.96 314.901 271.113 315.424 272.522C315.947 273.922 316.208 275.42 316.208 277.016C316.208 278.575 315.956 280.035 315.452 281.398C314.957 282.761 314.257 283.881 313.352 284.758H311.378Z" fill="black"/>
<path d="M100.528 334.368C100.528 333.259 100.768 332.272 101.248 331.408C101.728 330.533 102.395 329.856 103.248 329.376C104.112 328.885 105.088 328.64 106.176 328.64C107.509 328.64 108.651 328.992 109.6 329.696C110.549 330.4 111.184 331.36 111.504 332.576H108.496C108.272 332.107 107.952 331.749 107.536 331.504C107.131 331.259 106.667 331.136 106.144 331.136C105.301 331.136 104.619 331.429 104.096 332.016C103.573 332.603 103.312 333.387 103.312 334.368C103.312 335.349 103.573 336.133 104.096 336.72C104.619 337.307 105.301 337.6 106.144 337.6C106.667 337.6 107.131 337.477 107.536 337.232C107.952 336.987 108.272 336.629 108.496 336.16H111.504C111.184 337.376 110.549 338.336 109.6 339.04C108.651 339.733 107.509 340.08 106.176 340.08C105.088 340.08 104.112 339.84 103.248 339.36C102.395 338.869 101.728 338.192 101.248 337.328C100.768 336.464 100.528 335.477 100.528 334.368ZM121.26 328.768V330.96H118.284V340H115.548V330.96H112.572V328.768H121.26ZM129.625 338.016H125.433L124.761 340H121.897L125.961 328.768H129.129L133.193 340H130.297L129.625 338.016ZM128.921 335.904L127.529 331.792L126.153 335.904H128.921ZM140.524 342.064H137.788V326.96H140.524V342.064ZM145.307 330.864V328.32H149.739V340H146.891V330.864H145.307ZM157.387 331.472C157.301 331.077 157.152 330.784 156.939 330.592C156.725 330.389 156.421 330.288 156.027 330.288C155.419 330.288 154.981 330.555 154.715 331.088C154.448 331.611 154.309 332.443 154.299 333.584C154.533 333.211 154.869 332.917 155.307 332.704C155.755 332.491 156.245 332.384 156.779 332.384C157.824 332.384 158.661 332.715 159.291 333.376C159.931 334.037 160.251 334.96 160.251 336.144C160.251 336.923 160.091 337.605 159.771 338.192C159.461 338.779 159.003 339.237 158.395 339.568C157.797 339.899 157.088 340.064 156.267 340.064C154.624 340.064 153.483 339.552 152.843 338.528C152.203 337.493 151.883 336.011 151.883 334.08C151.883 332.053 152.219 330.549 152.891 329.568C153.573 328.576 154.661 328.08 156.155 328.08C156.955 328.08 157.627 328.24 158.171 328.56C158.725 328.869 159.141 329.28 159.419 329.792C159.707 330.304 159.877 330.864 159.931 331.472H157.387ZM156.123 334.544C155.664 334.544 155.28 334.683 154.971 334.96C154.672 335.227 154.523 335.611 154.523 336.112C154.523 336.624 154.661 337.024 154.939 337.312C155.227 337.6 155.632 337.744 156.155 337.744C156.624 337.744 156.992 337.605 157.259 337.328C157.536 337.04 157.675 336.651 157.675 336.16C157.675 335.659 157.541 335.264 157.275 334.976C157.008 334.688 156.624 334.544 156.123 334.544ZM165.014 337.472L163.238 342.064H161.494L162.422 337.472H165.014ZM176.855 334.24C177.505 334.379 178.028 334.704 178.423 335.216C178.817 335.717 179.015 336.293 179.015 336.944C179.015 337.883 178.684 338.629 178.023 339.184C177.372 339.728 176.46 340 175.287 340H170.055V328.768H175.111C176.252 328.768 177.143 329.029 177.783 329.552C178.433 330.075 178.759 330.784 178.759 331.68C178.759 332.341 178.583 332.891 178.231 333.328C177.889 333.765 177.431 334.069 176.855 334.24ZM172.791 333.312H174.583C175.031 333.312 175.372 333.216 175.607 333.024C175.852 332.821 175.975 332.528 175.975 332.144C175.975 331.76 175.852 331.467 175.607 331.264C175.372 331.061 175.031 330.96 174.583 330.96H172.791V333.312ZM174.807 337.792C175.265 337.792 175.617 337.691 175.863 337.488C176.119 337.275 176.247 336.971 176.247 336.576C176.247 336.181 176.113 335.872 175.847 335.648C175.591 335.424 175.233 335.312 174.775 335.312H172.791V337.792H174.807ZM184.665 340.128C183.791 340.128 183.001 339.941 182.297 339.568C181.604 339.195 181.055 338.661 180.649 337.968C180.255 337.275 180.057 336.464 180.057 335.536C180.057 334.619 180.26 333.813 180.665 333.12C181.071 332.416 181.625 331.877 182.329 331.504C183.033 331.131 183.823 330.944 184.697 330.944C185.572 330.944 186.361 331.131 187.065 331.504C187.769 331.877 188.324 332.416 188.729 333.12C189.135 333.813 189.337 334.619 189.337 335.536C189.337 336.453 189.129 337.264 188.713 337.968C188.308 338.661 187.748 339.195 187.033 339.568C186.329 339.941 185.54 340.128 184.665 340.128ZM184.665 337.76C185.188 337.76 185.631 337.568 185.993 337.184C186.367 336.8 186.553 336.251 186.553 335.536C186.553 334.821 186.372 334.272 186.009 333.888C185.657 333.504 185.22 333.312 184.697 333.312C184.164 333.312 183.721 333.504 183.369 333.888C183.017 334.261 182.841 334.811 182.841 335.536C182.841 336.251 183.012 336.8 183.353 337.184C183.705 337.568 184.143 337.76 184.665 337.76ZM193.525 328.16V340H190.789V328.16H193.525ZM194.964 335.52C194.964 334.603 195.134 333.797 195.476 333.104C195.828 332.411 196.302 331.877 196.9 331.504C197.497 331.131 198.164 330.944 198.9 330.944C199.486 330.944 200.02 331.067 200.5 331.312C200.99 331.557 201.374 331.888 201.652 332.304V328.16H204.388V340H201.652V338.72C201.396 339.147 201.028 339.488 200.548 339.744C200.078 340 199.529 340.128 198.9 340.128C198.164 340.128 197.497 339.941 196.9 339.568C196.302 339.184 195.828 338.645 195.476 337.952C195.134 337.248 194.964 336.437 194.964 335.52ZM201.652 335.536C201.652 334.853 201.46 334.315 201.076 333.92C200.702 333.525 200.244 333.328 199.7 333.328C199.156 333.328 198.692 333.525 198.308 333.92C197.934 334.304 197.748 334.837 197.748 335.52C197.748 336.203 197.934 336.747 198.308 337.152C198.692 337.547 199.156 337.744 199.7 337.744C200.244 337.744 200.702 337.547 201.076 337.152C201.46 336.757 201.652 336.219 201.652 335.536Z" fill="black"/>
<path d="M105.112 359.692C105.416 359.74 105.692 359.864 105.94 360.064C106.196 360.264 106.396 360.512 106.54 360.808C106.692 361.104 106.768 361.42 106.768 361.756C106.768 362.18 106.66 362.564 106.444 362.908C106.228 363.244 105.912 363.512 105.496 363.712C105.088 363.904 104.604 364 104.044 364H100.924V355.636H103.924C104.492 355.636 104.976 355.732 105.376 355.924C105.776 356.108 106.076 356.36 106.276 356.68C106.476 357 106.576 357.36 106.576 357.76C106.576 358.256 106.44 358.668 106.168 358.996C105.904 359.316 105.552 359.548 105.112 359.692ZM102.016 359.248H103.852C104.364 359.248 104.76 359.128 105.04 358.888C105.32 358.648 105.46 358.316 105.46 357.892C105.46 357.468 105.32 357.136 105.04 356.896C104.76 356.656 104.356 356.536 103.828 356.536H102.016V359.248ZM103.948 363.1C104.492 363.1 104.916 362.972 105.22 362.716C105.524 362.46 105.676 362.104 105.676 361.648C105.676 361.184 105.516 360.82 105.196 360.556C104.876 360.284 104.448 360.148 103.912 360.148H102.016V363.1H103.948ZM111.151 364.108C110.535 364.108 109.975 363.968 109.471 363.688C108.975 363.408 108.583 363.012 108.295 362.5C108.015 361.98 107.875 361.38 107.875 360.7C107.875 360.028 108.019 359.436 108.307 358.924C108.603 358.404 109.003 358.008 109.507 357.736C110.011 357.456 110.575 357.316 111.199 357.316C111.823 357.316 112.387 357.456 112.891 357.736C113.395 358.008 113.791 358.4 114.079 358.912C114.375 359.424 114.523 360.02 114.523 360.7C114.523 361.38 114.371 361.98 114.067 362.5C113.771 363.012 113.367 363.408 112.855 363.688C112.343 363.968 111.775 364.108 111.151 364.108ZM111.151 363.148C111.543 363.148 111.911 363.056 112.255 362.872C112.599 362.688 112.875 362.412 113.083 362.044C113.299 361.676 113.407 361.228 113.407 360.7C113.407 360.172 113.303 359.724 113.095 359.356C112.887 358.988 112.615 358.716 112.279 358.54C111.943 358.356 111.579 358.264 111.187 358.264C110.787 358.264 110.419 358.356 110.083 358.54C109.755 358.716 109.491 358.988 109.291 359.356C109.091 359.724 108.991 360.172 108.991 360.7C108.991 361.236 109.087 361.688 109.279 362.056C109.479 362.424 109.743 362.7 110.071 362.884C110.399 363.06 110.759 363.148 111.151 363.148ZM115.551 360.688C115.551 360.016 115.687 359.428 115.959 358.924C116.231 358.412 116.603 358.016 117.075 357.736C117.555 357.456 118.091 357.316 118.683 357.316C119.195 357.316 119.671 357.436 120.111 357.676C120.551 357.908 120.887 358.216 121.119 358.6V355.12H122.223V364H121.119V362.764C120.903 363.156 120.583 363.48 120.159 363.736C119.735 363.984 119.239 364.108 118.671 364.108C118.087 364.108 117.555 363.964 117.075 363.676C116.603 363.388 116.231 362.984 115.959 362.464C115.687 361.944 115.551 361.352 115.551 360.688ZM121.119 360.7C121.119 360.204 121.019 359.772 120.819 359.404C120.619 359.036 120.347 358.756 120.003 358.564C119.667 358.364 119.295 358.264 118.887 358.264C118.479 358.264 118.107 358.36 117.771 358.552C117.435 358.744 117.167 359.024 116.967 359.392C116.767 359.76 116.667 360.192 116.667 360.688C116.667 361.192 116.767 361.632 116.967 362.008C117.167 362.376 117.435 362.66 117.771 362.86C118.107 363.052 118.479 363.148 118.887 363.148C119.295 363.148 119.667 363.052 120.003 362.86C120.347 362.66 120.619 362.376 120.819 362.008C121.019 361.632 121.119 361.196 121.119 360.7ZM129.733 357.424L125.773 367.096H124.645L125.941 363.928L123.289 357.424H124.501L126.565 362.752L128.605 357.424H129.733ZM136.357 364.108C135.853 364.108 135.401 364.024 135.001 363.856C134.601 363.68 134.285 363.44 134.053 363.136C133.821 362.824 133.693 362.468 133.669 362.068H134.797C134.829 362.396 134.981 362.664 135.253 362.872C135.533 363.08 135.897 363.184 136.345 363.184C136.761 363.184 137.089 363.092 137.329 362.908C137.569 362.724 137.689 362.492 137.689 362.212C137.689 361.924 137.561 361.712 137.305 361.576C137.049 361.432 136.653 361.292 136.117 361.156C135.629 361.028 135.229 360.9 134.917 360.772C134.613 360.636 134.349 360.44 134.125 360.184C133.909 359.92 133.801 359.576 133.801 359.152C133.801 358.816 133.901 358.508 134.101 358.228C134.301 357.948 134.585 357.728 134.953 357.568C135.321 357.4 135.741 357.316 136.213 357.316C136.941 357.316 137.529 357.5 137.977 357.868C138.425 358.236 138.665 358.74 138.697 359.38H137.605C137.581 359.036 137.441 358.76 137.185 358.552C136.937 358.344 136.601 358.24 136.177 358.24C135.785 358.24 135.473 358.324 135.241 358.492C135.009 358.66 134.893 358.88 134.893 359.152C134.893 359.368 134.961 359.548 135.097 359.692C135.241 359.828 135.417 359.94 135.625 360.028C135.841 360.108 136.137 360.2 136.513 360.304C136.985 360.432 137.369 360.56 137.665 360.688C137.961 360.808 138.213 360.992 138.421 361.24C138.637 361.488 138.749 361.812 138.757 362.212C138.757 362.572 138.657 362.896 138.457 363.184C138.257 363.472 137.973 363.7 137.605 363.868C137.245 364.028 136.829 364.108 136.357 364.108ZM148.207 357.304C148.719 357.304 149.175 357.412 149.575 357.628C149.975 357.836 150.291 358.152 150.523 358.576C150.755 359 150.871 359.516 150.871 360.124V364H149.791V360.28C149.791 359.624 149.627 359.124 149.299 358.78C148.979 358.428 148.543 358.252 147.991 358.252C147.423 358.252 146.971 358.436 146.635 358.804C146.299 359.164 146.131 359.688 146.131 360.376V364H145.051V360.28C145.051 359.624 144.887 359.124 144.559 358.78C144.239 358.428 143.803 358.252 143.251 358.252C142.683 358.252 142.231 358.436 141.895 358.804C141.559 359.164 141.391 359.688 141.391 360.376V364H140.299V357.424H141.391V358.372C141.607 358.028 141.895 357.764 142.255 357.58C142.623 357.396 143.027 357.304 143.467 357.304C144.019 357.304 144.507 357.428 144.931 357.676C145.355 357.924 145.671 358.288 145.879 358.768C146.063 358.304 146.367 357.944 146.791 357.688C147.215 357.432 147.687 357.304 148.207 357.304ZM152.254 360.688C152.254 360.016 152.39 359.428 152.662 358.924C152.934 358.412 153.306 358.016 153.778 357.736C154.258 357.456 154.79 357.316 155.374 357.316C155.95 357.316 156.45 357.44 156.874 357.688C157.298 357.936 157.614 358.248 157.822 358.624V357.424H158.926V364H157.822V362.776C157.606 363.16 157.282 363.48 156.85 363.736C156.426 363.984 155.93 364.108 155.362 364.108C154.778 364.108 154.25 363.964 153.778 363.676C153.306 363.388 152.934 362.984 152.662 362.464C152.39 361.944 152.254 361.352 152.254 360.688ZM157.822 360.7C157.822 360.204 157.722 359.772 157.522 359.404C157.322 359.036 157.05 358.756 156.706 358.564C156.37 358.364 155.998 358.264 155.59 358.264C155.182 358.264 154.81 358.36 154.474 358.552C154.138 358.744 153.87 359.024 153.67 359.392C153.47 359.76 153.37 360.192 153.37 360.688C153.37 361.192 153.47 361.632 153.67 362.008C153.87 362.376 154.138 362.66 154.474 362.86C154.81 363.052 155.182 363.148 155.59 363.148C155.998 363.148 156.37 363.052 156.706 362.86C157.05 362.66 157.322 362.376 157.522 362.008C157.722 361.632 157.822 361.196 157.822 360.7ZM161.864 355.12V364H160.772V355.12H161.864ZM164.817 355.12V364H163.725V355.12H164.817ZM171.245 365.272H170.153V354.46H171.245V365.272ZM176.101 356.32V355.324H178.357V364H177.253V356.32H176.101ZM180.1 363.124C181.116 362.308 181.912 361.64 182.488 361.12C183.064 360.592 183.548 360.044 183.94 359.476C184.34 358.9 184.54 358.336 184.54 357.784C184.54 357.264 184.412 356.856 184.156 356.56C183.908 356.256 183.504 356.104 182.944 356.104C182.4 356.104 181.976 356.276 181.672 356.62C181.376 356.956 181.216 357.408 181.192 357.976H180.136C180.168 357.08 180.44 356.388 180.952 355.9C181.464 355.412 182.124 355.168 182.932 355.168C183.756 355.168 184.408 355.396 184.888 355.852C185.376 356.308 185.62 356.936 185.62 357.736C185.62 358.4 185.42 359.048 185.02 359.68C184.628 360.304 184.18 360.856 183.676 361.336C183.172 361.808 182.528 362.36 181.744 362.992H185.872V363.904H180.1V363.124ZM188.443 362.488L187.099 365.716H186.367L187.243 362.488H188.443ZM197.297 364L195.305 360.58H193.985V364H192.893V355.636H195.593C196.225 355.636 196.757 355.744 197.189 355.96C197.629 356.176 197.957 356.468 198.173 356.836C198.389 357.204 198.497 357.624 198.497 358.096C198.497 358.672 198.329 359.18 197.993 359.62C197.665 360.06 197.169 360.352 196.505 360.496L198.605 364H197.297ZM193.985 359.704H195.593C196.185 359.704 196.629 359.56 196.925 359.272C197.221 358.976 197.369 358.584 197.369 358.096C197.369 357.6 197.221 357.216 196.925 356.944C196.637 356.672 196.193 356.536 195.593 356.536H193.985V359.704ZM206.194 360.46C206.194 360.668 206.182 360.888 206.158 361.12H200.902C200.942 361.768 201.162 362.276 201.562 362.644C201.97 363.004 202.462 363.184 203.038 363.184C203.51 363.184 203.902 363.076 204.214 362.86C204.534 362.636 204.758 362.34 204.886 361.972H206.062C205.886 362.604 205.534 363.12 205.006 363.52C204.478 363.912 203.822 364.108 203.038 364.108C202.414 364.108 201.854 363.968 201.358 363.688C200.87 363.408 200.486 363.012 200.206 362.5C199.926 361.98 199.786 361.38 199.786 360.7C199.786 360.02 199.922 359.424 200.194 358.912C200.466 358.4 200.846 358.008 201.334 357.736C201.83 357.456 202.398 357.316 203.038 357.316C203.662 357.316 204.214 357.452 204.694 357.724C205.174 357.996 205.542 358.372 205.798 358.852C206.062 359.324 206.194 359.86 206.194 360.46ZM205.066 360.232C205.066 359.816 204.974 359.46 204.79 359.164C204.606 358.86 204.354 358.632 204.034 358.48C203.722 358.32 203.374 358.24 202.99 358.24C202.438 358.24 201.966 358.416 201.574 358.768C201.19 359.12 200.97 359.608 200.914 360.232H205.066ZM210.347 357.316C210.915 357.316 211.411 357.44 211.835 357.688C212.267 357.936 212.587 358.248 212.795 358.624V357.424H213.899V364.144C213.899 364.744 213.771 365.276 213.515 365.74C213.259 366.212 212.891 366.58 212.411 366.844C211.939 367.108 211.387 367.24 210.755 367.24C209.891 367.24 209.171 367.036 208.595 366.628C208.019 366.22 207.679 365.664 207.575 364.96H208.655C208.775 365.36 209.023 365.68 209.399 365.92C209.775 366.168 210.227 366.292 210.755 366.292C211.355 366.292 211.843 366.104 212.219 365.728C212.603 365.352 212.795 364.824 212.795 364.144V362.764C212.579 363.148 212.259 363.468 211.835 363.724C211.411 363.98 210.915 364.108 210.347 364.108C209.763 364.108 209.231 363.964 208.751 363.676C208.279 363.388 207.907 362.984 207.635 362.464C207.363 361.944 207.227 361.352 207.227 360.688C207.227 360.016 207.363 359.428 207.635 358.924C207.907 358.412 208.279 358.016 208.751 357.736C209.231 357.456 209.763 357.316 210.347 357.316ZM212.795 360.7C212.795 360.204 212.695 359.772 212.495 359.404C212.295 359.036 212.023 358.756 211.679 358.564C211.343 358.364 210.971 358.264 210.563 358.264C210.155 358.264 209.783 358.36 209.447 358.552C209.111 358.744 208.843 359.024 208.643 359.392C208.443 359.76 208.343 360.192 208.343 360.688C208.343 361.192 208.443 361.632 208.643 362.008C208.843 362.376 209.111 362.66 209.447 362.86C209.783 363.052 210.155 363.148 210.563 363.148C210.971 363.148 211.343 363.052 211.679 362.86C212.023 362.66 212.295 362.376 212.495 362.008C212.695 361.632 212.795 361.196 212.795 360.7ZM221.576 357.424V364H220.484V363.028C220.276 363.364 219.984 363.628 219.608 363.82C219.24 364.004 218.832 364.096 218.384 364.096C217.872 364.096 217.412 363.992 217.004 363.784C216.596 363.568 216.272 363.248 216.032 362.824C215.8 362.4 215.684 361.884 215.684 361.276V357.424H216.764V361.132C216.764 361.78 216.928 362.28 217.256 362.632C217.584 362.976 218.032 363.148 218.6 363.148C219.184 363.148 219.644 362.968 219.98 362.608C220.316 362.248 220.484 361.724 220.484 361.036V357.424H221.576ZM224.512 355.12V364H223.42V355.12H224.512ZM225.965 360.688C225.965 360.016 226.101 359.428 226.373 358.924C226.645 358.412 227.017 358.016 227.489 357.736C227.969 357.456 228.501 357.316 229.085 357.316C229.661 357.316 230.161 357.44 230.585 357.688C231.009 357.936 231.325 358.248 231.533 358.624V357.424H232.637V364H231.533V362.776C231.317 363.16 230.993 363.48 230.561 363.736C230.137 363.984 229.641 364.108 229.073 364.108C228.489 364.108 227.961 363.964 227.489 363.676C227.017 363.388 226.645 362.984 226.373 362.464C226.101 361.944 225.965 361.352 225.965 360.688ZM231.533 360.7C231.533 360.204 231.433 359.772 231.233 359.404C231.033 359.036 230.761 358.756 230.417 358.564C230.081 358.364 229.709 358.264 229.301 358.264C228.893 358.264 228.521 358.36 228.185 358.552C227.849 358.744 227.581 359.024 227.381 359.392C227.181 359.76 227.081 360.192 227.081 360.688C227.081 361.192 227.181 361.632 227.381 362.008C227.581 362.376 227.849 362.66 228.185 362.86C228.521 363.052 228.893 363.148 229.301 363.148C229.709 363.148 230.081 363.052 230.417 362.86C230.761 362.66 231.033 362.376 231.233 362.008C231.433 361.632 231.533 361.196 231.533 360.7ZM235.575 358.492C235.767 358.116 236.039 357.824 236.391 357.616C236.751 357.408 237.187 357.304 237.699 357.304V358.432H237.411C236.187 358.432 235.575 359.096 235.575 360.424V364H234.483V357.424H235.575V358.492Z" fill="black"/>
<path d="M367.792 107.552C367.792 105.888 368.152 104.408 368.872 103.112C369.592 101.8 370.592 100.784 371.872 100.064C373.168 99.328 374.632 98.96 376.264 98.96C378.264 98.96 379.976 99.488 381.4 100.544C382.824 101.6 383.776 103.04 384.256 104.864H379.744C379.408 104.16 378.928 103.624 378.304 103.256C377.696 102.888 377 102.704 376.216 102.704C374.952 102.704 373.928 103.144 373.144 104.024C372.36 104.904 371.968 106.08 371.968 107.552C371.968 109.024 372.36 110.2 373.144 111.08C373.928 111.96 374.952 112.4 376.216 112.4C377 112.4 377.696 112.216 378.304 111.848C378.928 111.48 379.408 110.944 379.744 110.24H384.256C383.776 112.064 382.824 113.504 381.4 114.56C379.976 115.6 378.264 116.12 376.264 116.12C374.632 116.12 373.168 115.76 371.872 115.04C370.592 114.304 369.592 113.288 368.872 111.992C368.152 110.696 367.792 109.216 367.792 107.552ZM394.737 116.168C393.153 116.168 391.697 115.8 390.369 115.064C389.057 114.328 388.009 113.304 387.225 111.992C386.457 110.664 386.073 109.176 386.073 107.528C386.073 105.88 386.457 104.4 387.225 103.088C388.009 101.776 389.057 100.752 390.369 100.016C391.697 99.28 393.153 98.912 394.737 98.912C396.321 98.912 397.769 99.28 399.081 100.016C400.409 100.752 401.449 101.776 402.201 103.088C402.969 104.4 403.353 105.88 403.353 107.528C403.353 109.176 402.969 110.664 402.201 111.992C401.433 113.304 400.393 114.328 399.081 115.064C397.769 115.8 396.321 116.168 394.737 116.168ZM394.737 112.424C396.081 112.424 397.153 111.976 397.953 111.08C398.769 110.184 399.177 109 399.177 107.528C399.177 106.04 398.769 104.856 397.953 103.976C397.153 103.08 396.081 102.632 394.737 102.632C393.377 102.632 392.289 103.072 391.473 103.952C390.673 104.832 390.273 106.024 390.273 107.528C390.273 109.016 390.673 110.208 391.473 111.104C392.289 111.984 393.377 112.424 394.737 112.424ZM409.74 112.832H415.116V116H405.636V99.152H409.74V112.832ZM425.042 116.168C423.458 116.168 422.002 115.8 420.674 115.064C419.362 114.328 418.314 113.304 417.53 111.992C416.762 110.664 416.378 109.176 416.378 107.528C416.378 105.88 416.762 104.4 417.53 103.088C418.314 101.776 419.362 100.752 420.674 100.016C422.002 99.28 423.458 98.912 425.042 98.912C426.626 98.912 428.074 99.28 429.386 100.016C430.714 100.752 431.754 101.776 432.506 103.088C433.274 104.4 433.658 105.88 433.658 107.528C433.658 109.176 433.274 110.664 432.506 111.992C431.738 113.304 430.698 114.328 429.386 115.064C428.074 115.8 426.626 116.168 425.042 116.168ZM425.042 112.424C426.386 112.424 427.458 111.976 428.258 111.08C429.074 110.184 429.482 109 429.482 107.528C429.482 106.04 429.074 104.856 428.258 103.976C427.458 103.08 426.386 102.632 425.042 102.632C423.682 102.632 422.594 103.072 421.778 103.952C420.978 104.832 420.578 106.024 420.578 107.528C420.578 109.016 420.978 110.208 421.778 111.104C422.594 111.984 423.682 112.424 425.042 112.424ZM444.533 116L441.029 109.64H440.045V116H435.941V99.152H442.829C444.157 99.152 445.285 99.384 446.213 99.848C447.157 100.312 447.861 100.952 448.325 101.768C448.789 102.568 449.021 103.464 449.021 104.456C449.021 105.576 448.701 106.576 448.061 107.456C447.437 108.336 446.509 108.96 445.277 109.328L449.165 116H444.533ZM440.045 106.736H442.589C443.341 106.736 443.901 106.552 444.269 106.184C444.653 105.816 444.845 105.296 444.845 104.624C444.845 103.984 444.653 103.48 444.269 103.112C443.901 102.744 443.341 102.56 442.589 102.56H440.045V106.736ZM469.523 104.576C469.523 105.552 469.299 106.448 468.851 107.264C468.403 108.064 467.715 108.712 466.787 109.208C465.859 109.704 464.707 109.952 463.331 109.952H460.787V116H456.683V99.152H463.331C464.675 99.152 465.811 99.384 466.739 99.848C467.667 100.312 468.363 100.952 468.827 101.768C469.291 102.584 469.523 103.52 469.523 104.576ZM463.019 106.688C463.803 106.688 464.387 106.504 464.771 106.136C465.155 105.768 465.347 105.248 465.347 104.576C465.347 103.904 465.155 103.384 464.771 103.016C464.387 102.648 463.803 102.464 463.019 102.464H460.787V106.688H463.019ZM482.148 113.024H475.86L474.852 116H470.556L476.652 99.152H481.404L487.5 116H483.156L482.148 113.024ZM481.092 109.856L479.004 103.688L476.94 109.856H481.092ZM493.459 112.832H498.835V116H489.355V99.152H493.459V112.832ZM504.897 102.44V105.848H510.393V109.016H504.897V112.712H511.113V116H500.793V99.152H511.113V102.44H504.897ZM525.897 99.152V102.44H521.433V116H517.329V102.44H512.865V99.152H525.897ZM540.077 99.152V102.44H535.613V116H531.509V102.44H527.045V99.152H540.077ZM546.24 102.44V105.848H551.736V109.016H546.24V112.712H552.456V116H542.136V99.152H552.456V102.44H546.24Z" fill="black"/>
<rect x="367" y="369" width="218" height="47" transform="rotate(-90 367 369)" fill="#F2E8DD"/>
<rect x="431" y="369" width="218" height="47" transform="rotate(-90 431 369)" fill="#C69524"/>
<rect x="495" y="369" width="218" height="47" transform="rotate(-90 495 369)" fill="#666853"/>
<rect x="559" y="369" width="218" height="47" transform="rotate(-90 559 369)" fill="#895147"/>
<rect x="623" y="369" width="218" height="47" transform="rotate(-90 623 369)" fill="#C49F83"/>
<rect x="879" y="369" width="218" height="47" transform="rotate(-90 879 369)" fill="white"/>
<rect x="751" y="369" width="218" height="47" transform="rotate(-90 751 369)" fill="#605B5D"/>
<rect x="687" y="369" width="218" height="47" transform="rotate(-90 687 369)" fill="#C0BABB"/>
<rect x="815" y="369" width="218" height="47" transform="rotate(-90 815 369)" fill="#301E23"/>
</svg>
