<svg width="1069" height="221" viewBox="0 0 1069 221" fill="none" xmlns="http://www.w3.org/2000/svg">
<path d="M54.409 72.5919C54.409 57.6802 42.3207 45.5919 27.409 45.5919C12.4973 45.5919 0.409029 57.6802 0.409029 72.5919C0.409029 87.5036 12.4973 99.5919 27.409 99.5919C42.3207 99.5919 54.409 87.5036 54.409 72.5919Z" fill="#E74F83"/>
<path d="M224.409 59.5919C224.409 44.6802 212.321 32.5919 197.409 32.5919C182.497 32.5919 170.409 44.6802 170.409 59.5919C170.409 74.5036 182.497 86.5919 197.409 86.5919C212.321 86.5919 224.409 74.5036 224.409 59.5919Z" fill="#E74F83"/>
<path d="M45.409 72.0919C45.409 61.8747 37.1263 53.5919 26.909 53.5919C16.6918 53.5919 8.40903 61.8747 8.40903 72.0919C8.40903 82.3092 16.6918 90.5919 26.909 90.5919C37.1263 90.5919 45.409 82.3092 45.409 72.0919Z" fill="#EDB5D5"/>
<path d="M215.409 59.5919C215.409 49.6508 207.126 41.5919 196.909 41.5919C186.692 41.5919 178.409 49.6508 178.409 59.5919C178.409 69.5331 186.692 77.5919 196.909 77.5919C207.126 77.5919 215.409 69.5331 215.409 59.5919Z" fill="#EDB5D5"/>
<path d="M233.361 167.273C233.409 149.327 230.443 131.549 224.632 114.954C218.821 98.3583 210.28 83.2708 199.496 70.5526C188.711 57.8343 175.895 47.7344 161.779 40.8293C147.663 33.9243 132.523 30.3495 117.224 30.3089C101.925 30.2684 86.7666 33.7629 72.614 40.593C58.4614 47.4231 45.5919 57.455 34.7403 70.1159C23.8887 82.7768 15.2674 97.8188 9.36885 114.383C3.47025 130.947 0.409797 148.709 0.362229 166.655L233.361 167.273Z" fill="#E74F83"/>
<path d="M142.409 138.592C142.409 125.889 132.783 115.592 120.909 115.592C109.035 115.592 99.409 125.889 99.409 138.592C99.409 151.294 109.035 161.592 120.909 161.592C132.783 161.592 142.409 151.294 142.409 138.592Z" fill="#EDB5D5"/>
<path d="M130.409 123.592C130.409 120.278 126.38 117.592 121.409 117.592C116.438 117.592 112.409 120.278 112.409 123.592C112.409 126.906 116.438 129.592 121.409 129.592C126.38 129.592 130.409 126.906 130.409 123.592Z" fill="#E74F83"/>
<path d="M130.409 147.592C130.409 141.517 126.827 136.592 122.409 136.592C117.991 136.592 114.409 141.517 114.409 147.592C114.409 153.667 117.991 158.592 122.409 158.592C126.827 158.592 130.409 153.667 130.409 147.592Z" fill="#E74F83"/>
<path d="M148.961 112.562C149.151 111.474 150.188 110.746 151.276 110.937L176.08 115.279C177.168 115.469 177.896 116.506 177.705 117.594L176.498 124.489C176.308 125.577 175.271 126.305 174.183 126.114L149.379 121.772C148.291 121.582 147.563 120.545 147.754 119.457L148.961 112.562Z" fill="#EDB5D5"/>
<path d="M58.9622 126.025C58.6567 124.964 59.2695 123.856 60.331 123.55L86.0598 116.145C87.1213 115.84 88.2295 116.452 88.535 117.514L90.471 124.241C90.7765 125.302 90.1637 126.41 89.1022 126.716L63.3734 134.121C62.3119 134.426 61.2038 133.814 60.8983 132.752L58.9622 126.025Z" fill="#EDB5D5"/>
<path d="M0 165H233V221H0V165Z" fill="#E74F83"/>
<path d="M482.409 84.5919C482.409 69.6802 470.321 57.5919 455.409 57.5919C440.497 57.5919 428.409 69.6802 428.409 84.5919C428.409 99.5036 440.497 111.592 455.409 111.592C470.321 111.592 482.409 99.5036 482.409 84.5919Z" fill="#F0BD4D"/>
<path d="M652.409 71.5919C652.409 56.6802 640.321 44.5919 625.409 44.5919C610.497 44.5919 598.409 56.6802 598.409 71.5919C598.409 86.5036 610.497 98.5919 625.409 98.5919C640.321 98.5919 652.409 86.5036 652.409 71.5919Z" fill="#F0BD4D"/>
<path d="M473.409 84.0919C473.409 73.8747 465.126 65.5919 454.909 65.5919C444.692 65.5919 436.409 73.8747 436.409 84.0919C436.409 94.3092 444.692 102.592 454.909 102.592C465.126 102.592 473.409 94.3092 473.409 84.0919Z" fill="#FCF7BC"/>
<path d="M643.409 71.5919C643.409 61.6508 635.126 53.5919 624.909 53.5919C614.692 53.5919 606.409 61.6508 606.409 71.5919C606.409 81.5331 614.692 89.5919 624.909 89.5919C635.126 89.5919 643.409 81.5331 643.409 71.5919Z" fill="#FCF7BC"/>
<path d="M661.361 179.273C661.409 161.327 658.443 143.549 652.632 126.954C646.821 110.358 638.28 95.2708 627.496 82.5526C616.711 69.8343 603.895 59.7344 589.779 52.8293C575.663 45.9243 560.523 42.3495 545.224 42.3089C529.925 42.2684 514.767 45.7629 500.614 52.593C486.461 59.4231 473.592 69.455 462.74 82.1159C451.889 94.7768 443.267 109.819 437.369 126.383C431.47 142.947 428.41 160.709 428.362 178.655L661.361 179.273Z" fill="#F0BD4D"/>
<path d="M570.409 150.592C570.409 137.889 560.783 127.592 548.909 127.592C537.035 127.592 527.409 137.889 527.409 150.592C527.409 163.294 537.035 173.592 548.909 173.592C560.783 173.592 570.409 163.294 570.409 150.592Z" fill="#FCF7BC"/>
<path d="M558.409 135.592C558.409 132.278 554.38 129.592 549.409 129.592C544.438 129.592 540.409 132.278 540.409 135.592C540.409 138.906 544.438 141.592 549.409 141.592C554.38 141.592 558.409 138.906 558.409 135.592Z" fill="#F0BD4D"/>
<path d="M558.409 159.592C558.409 153.517 554.827 148.592 550.409 148.592C545.991 148.592 542.409 153.517 542.409 159.592C542.409 165.667 545.991 170.592 550.409 170.592C554.827 170.592 558.409 165.667 558.409 159.592Z" fill="#F0BD4D"/>
<path d="M576.961 124.562C577.151 123.474 578.188 122.746 579.276 122.937L604.08 127.279C605.168 127.469 605.896 128.506 605.705 129.594L604.498 136.489C604.308 137.577 603.271 138.305 602.183 138.114L577.379 133.772C576.291 133.582 575.563 132.545 575.754 131.457L576.961 124.562Z" fill="#FCF7BC"/>
<path d="M486.962 138.025C486.657 136.964 487.27 135.856 488.331 135.55L514.06 128.145C515.121 127.84 516.229 128.452 516.535 129.514L518.471 136.241C518.777 137.302 518.164 138.41 517.102 138.716L491.373 146.121C490.312 146.426 489.204 145.814 488.898 144.752L486.962 138.025Z" fill="#FCF7BC"/>
<path d="M428 177H661V221H428V177Z" fill="#F0BD4D"/>
<path d="M697.409 42.5919C697.409 27.6802 685.321 15.5919 670.409 15.5919C655.497 15.5919 643.409 27.6802 643.409 42.5919C643.409 57.5036 655.497 69.5919 670.409 69.5919C685.321 69.5919 697.409 57.5036 697.409 42.5919Z" fill="#86B95B"/>
<path d="M867.409 29.5919C867.409 14.6802 855.321 2.59194 840.409 2.59194C825.497 2.59194 813.409 14.6802 813.409 29.5919C813.409 44.5036 825.497 56.5919 840.409 56.5919C855.321 56.5919 867.409 44.5036 867.409 29.5919Z" fill="#86B95B"/>
<path d="M688.409 42.0919C688.409 31.8747 680.126 23.5919 669.909 23.5919C659.692 23.5919 651.409 31.8747 651.409 42.0919C651.409 52.3092 659.692 60.5919 669.909 60.5919C680.126 60.5919 688.409 52.3092 688.409 42.0919Z" fill="#DAEBBA"/>
<path d="M858.409 29.5919C858.409 19.6508 850.126 11.5919 839.909 11.5919C829.692 11.5919 821.409 19.6508 821.409 29.5919C821.409 39.5331 829.692 47.5919 839.909 47.5919C850.126 47.5919 858.409 39.5331 858.409 29.5919Z" fill="#DAEBBA"/>
<path d="M876.361 137.273C876.409 119.327 873.443 101.549 867.632 84.9536C861.821 68.3583 853.28 53.2708 842.496 40.5526C831.711 27.8343 818.895 17.7344 804.779 10.8294C790.663 3.92433 775.523 0.349495 760.224 0.308943C744.925 0.268391 729.767 3.76292 715.614 10.593C701.461 17.4231 688.592 27.455 677.74 40.1159C666.889 52.7768 658.267 67.8188 652.369 84.383C646.47 100.947 643.41 118.709 643.362 136.655L876.361 137.273Z" fill="#86B95B"/>
<path d="M785.409 108.592C785.409 95.8894 775.783 85.5919 763.909 85.5919C752.035 85.5919 742.409 95.8894 742.409 108.592C742.409 121.294 752.035 131.592 763.909 131.592C775.783 131.592 785.409 121.294 785.409 108.592Z" fill="#DAEBBA"/>
<path d="M773.409 93.5919C773.409 90.2782 769.38 87.5919 764.409 87.5919C759.438 87.5919 755.409 90.2782 755.409 93.5919C755.409 96.9056 759.438 99.5919 764.409 99.5919C769.38 99.5919 773.409 96.9056 773.409 93.5919Z" fill="#86B95B"/>
<path d="M773.409 117.592C773.409 111.517 769.827 106.592 765.409 106.592C760.991 106.592 757.409 111.517 757.409 117.592C757.409 123.667 760.991 128.592 765.409 128.592C769.827 128.592 773.409 123.667 773.409 117.592Z" fill="#86B95B"/>
<path d="M791.961 82.562C792.151 81.474 793.188 80.7463 794.276 80.9368L819.08 85.2789C820.168 85.4694 820.896 86.5058 820.705 87.5938L819.498 94.489C819.308 95.577 818.271 96.3046 817.183 96.1142L792.379 91.772C791.291 91.5816 790.563 90.5451 790.754 89.4571L791.961 82.562Z" fill="#DAEBBA"/>
<path d="M701.962 96.0251C701.657 94.9637 702.27 93.8555 703.331 93.55L729.06 86.1451C730.121 85.8396 731.229 86.4524 731.535 87.5139L733.471 94.2408C733.777 95.3023 733.164 96.4104 732.102 96.716L706.373 104.121C705.312 104.426 704.204 103.814 703.898 102.752L701.962 96.0251Z" fill="#DAEBBA"/>
<path d="M643 135H876V221H643V135Z" fill="#86B95B"/>
<path d="M889.409 99.5919C889.409 84.6802 877.321 72.5919 862.409 72.5919C847.497 72.5919 835.409 84.6802 835.409 99.5919C835.409 114.504 847.497 126.592 862.409 126.592C877.321 126.592 889.409 114.504 889.409 99.5919Z" fill="#8FC7CE"/>
<path d="M1059.41 86.5919C1059.41 71.6802 1047.32 59.5919 1032.41 59.5919C1017.5 59.5919 1005.41 71.6802 1005.41 86.5919C1005.41 101.504 1017.5 113.592 1032.41 113.592C1047.32 113.592 1059.41 101.504 1059.41 86.5919Z" fill="#8FC7CE"/>
<path d="M880.409 99.0919C880.409 88.8747 872.126 80.5919 861.909 80.5919C851.692 80.5919 843.409 88.8747 843.409 99.0919C843.409 109.309 851.692 117.592 861.909 117.592C872.126 117.592 880.409 109.309 880.409 99.0919Z" fill="#BBE1EF"/>
<path d="M1050.41 86.5919C1050.41 76.6508 1042.13 68.5919 1031.91 68.5919C1021.69 68.5919 1013.41 76.6508 1013.41 86.5919C1013.41 96.5331 1021.69 104.592 1031.91 104.592C1042.13 104.592 1050.41 96.5331 1050.41 86.5919Z" fill="#BBE1EF"/>
<path d="M1068.36 194.273C1068.41 176.327 1065.44 158.549 1059.63 141.954C1053.82 125.358 1045.28 110.271 1034.5 97.5526C1023.71 84.8343 1010.9 74.7344 996.779 67.8294C982.663 60.9243 967.523 57.3495 952.224 57.3089C936.925 57.2684 921.767 60.7629 907.614 67.593C893.461 74.4231 880.592 84.455 869.74 97.1159C858.889 109.777 850.267 124.819 844.369 141.383C838.47 157.947 835.41 175.709 835.362 193.655L1068.36 194.273Z" fill="#8FC7CE"/>
<path d="M977.409 165.592C977.409 152.889 967.783 142.592 955.909 142.592C944.035 142.592 934.409 152.889 934.409 165.592C934.409 178.294 944.035 188.592 955.909 188.592C967.783 188.592 977.409 178.294 977.409 165.592Z" fill="#BBE1EF"/>
<path d="M965.409 150.592C965.409 147.278 961.38 144.592 956.409 144.592C951.438 144.592 947.409 147.278 947.409 150.592C947.409 153.906 951.438 156.592 956.409 156.592C961.38 156.592 965.409 153.906 965.409 150.592Z" fill="#8FC7CE"/>
<path d="M965.409 174.592C965.409 168.517 961.827 163.592 957.409 163.592C952.991 163.592 949.409 168.517 949.409 174.592C949.409 180.667 952.991 185.592 957.409 185.592C961.827 185.592 965.409 180.667 965.409 174.592Z" fill="#8FC7CE"/>
<path d="M983.961 139.562C984.151 138.474 985.188 137.746 986.276 137.937L1011.08 142.279C1012.17 142.469 1012.9 143.506 1012.71 144.594L1011.5 151.489C1011.31 152.577 1010.27 153.305 1009.18 153.114L984.379 148.772C983.291 148.582 982.563 147.545 982.754 146.457L983.961 139.562Z" fill="#BBE1EF"/>
<path d="M893.962 153.025C893.657 151.964 894.27 150.856 895.331 150.55L921.06 143.145C922.121 142.84 923.229 143.452 923.535 144.514L925.471 151.241C925.777 152.302 925.164 153.41 924.102 153.716L898.373 161.121C897.312 161.426 896.204 160.814 895.898 159.752L893.962 153.025Z" fill="#BBE1EF"/>
<path d="M835.409 191.592H1068.41V220.592H835.409V191.592Z" fill="#8FC7CE"/>
<path d="M267.409 111.592C267.409 96.6802 255.321 84.5919 240.409 84.5919C225.497 84.5919 213.409 96.6802 213.409 111.592C213.409 126.504 225.497 138.592 240.409 138.592C255.321 138.592 267.409 126.504 267.409 111.592Z" fill="#FF715B"/>
<path d="M437.409 98.5919C437.409 83.6802 425.321 71.5919 410.409 71.5919C395.497 71.5919 383.409 83.6802 383.409 98.5919C383.409 113.504 395.497 125.592 410.409 125.592C425.321 125.592 437.409 113.504 437.409 98.5919Z" fill="#FF715B"/>
<path d="M258.409 111.092C258.409 100.875 250.126 92.5919 239.909 92.5919C229.692 92.5919 221.409 100.875 221.409 111.092C221.409 121.309 229.692 129.592 239.909 129.592C250.126 129.592 258.409 121.309 258.409 111.092Z" fill="#F1BDA9"/>
<path d="M428.409 98.5919C428.409 88.6508 420.126 80.5919 409.909 80.5919C399.692 80.5919 391.409 88.6508 391.409 98.5919C391.409 108.533 399.692 116.592 409.909 116.592C420.126 116.592 428.409 108.533 428.409 98.5919Z" fill="#F1BDA9"/>
<path d="M446.361 206.273C446.409 188.327 443.443 170.549 437.632 153.954C431.821 137.358 423.28 122.271 412.496 109.553C401.711 96.8343 388.895 86.7344 374.779 79.8294C360.663 72.9243 345.523 69.3495 330.224 69.3089C314.925 69.2684 299.767 72.7629 285.614 79.593C271.461 86.4231 258.592 96.455 247.74 109.116C236.889 121.777 228.267 136.819 222.369 153.383C216.47 169.947 213.41 187.709 213.362 205.655L446.361 206.273Z" fill="#FF715B"/>
<path d="M355.409 177.592C355.409 164.889 345.783 154.592 333.909 154.592C322.035 154.592 312.409 164.889 312.409 177.592C312.409 190.294 322.035 200.592 333.909 200.592C345.783 200.592 355.409 190.294 355.409 177.592Z" fill="#F1BDA9"/>
<path d="M343.409 162.592C343.409 159.278 339.38 156.592 334.409 156.592C329.438 156.592 325.409 159.278 325.409 162.592C325.409 165.906 329.438 168.592 334.409 168.592C339.38 168.592 343.409 165.906 343.409 162.592Z" fill="#FF715B"/>
<path d="M343.409 186.592C343.409 180.517 339.827 175.592 335.409 175.592C330.991 175.592 327.409 180.517 327.409 186.592C327.409 192.667 330.991 197.592 335.409 197.592C339.827 197.592 343.409 192.667 343.409 186.592Z" fill="#FF715B"/>
<path d="M361.961 151.562C362.151 150.474 363.188 149.746 364.276 149.937L389.08 154.279C390.168 154.469 390.896 155.506 390.705 156.594L389.498 163.489C389.308 164.577 388.271 165.305 387.183 165.114L362.379 160.772C361.291 160.582 360.563 159.545 360.754 158.457L361.961 151.562Z" fill="#F1BDA9"/>
<path d="M271.962 165.025C271.657 163.964 272.27 162.856 273.331 162.55L299.06 155.145C300.121 154.84 301.229 155.452 301.535 156.514L303.471 163.241C303.777 164.302 303.164 165.41 302.102 165.716L276.373 173.121C275.312 173.426 274.204 172.814 273.898 171.752L271.962 165.025Z" fill="#F1BDA9"/>
<path d="M213 204H446V221H213V204Z" fill="#FF715B"/>
</svg>
