<svg width="1512" height="982" viewBox="0 0 1512 982" fill="none" xmlns="http://www.w3.org/2000/svg">
<g clip-path="url(#clip0_532_210)">
<circle cx="60.8979" cy="60.8979" r="60.8979" transform="matrix(1 0 0 -1 507.229 242.963)" fill="#F0BD4D"/>
<circle cx="60.8979" cy="60.8979" r="60.8979" transform="matrix(1 0 0 -1 890.66 213.642)" fill="#F0BD4D"/>
<circle cx="41.7263" cy="41.7263" r="41.7263" transform="matrix(1 0 0 -1 525.272 222.663)" fill="#FCF7BC"/>
<ellipse cx="41.7263" cy="40.5986" rx="41.7263" ry="40.5986" transform="matrix(1 0 0 -1 908.704 193.342)" fill="#FCF7BC"/>
<path d="M1032.65 395.615C1032.76 355.139 1026.06 315.041 1012.96 277.61C999.853 240.18 980.588 206.151 956.264 177.465C931.941 148.779 903.034 125.999 871.195 110.425C839.357 94.8509 805.209 86.788 770.703 86.6965C736.196 86.605 702.007 94.4869 670.086 109.892C638.165 125.297 609.138 147.924 584.663 176.48C560.187 205.036 540.742 238.963 527.438 276.323C514.134 313.684 507.231 353.746 507.124 394.222L769.886 394.918L1032.65 395.615Z" fill="#F0BD4D"/>
<ellipse cx="48.4927" cy="51.8759" rx="48.4927" ry="51.8759" transform="matrix(1 0 0 -1 730.521 382.802)" fill="#FCF7BC"/>
<ellipse cx="20.2993" cy="13.5329" rx="20.2993" ry="13.5329" transform="matrix(1 0 0 -1 759.843 310.626)" fill="#F0BD4D"/>
<ellipse cx="18.0438" cy="24.8102" rx="18.0438" ry="24.8102" transform="matrix(1 0 0 -1 764.354 376.036)" fill="#F0BD4D"/>
<rect x="843.062" y="267.773" width="65.8178" height="24.8102" rx="2" transform="rotate(9.92939 843.062 267.773)" fill="#FCF7BC"/>
<rect x="638.047" y="298.247" width="69.4082" height="24.8102" rx="2" transform="rotate(-16.0562 638.047 298.247)" fill="#FCF7BC"/>
<rect x="506" y="390" width="526" height="592" fill="#F0BD4D"/>
<circle cx="60.8979" cy="60.8979" r="60.8979" transform="matrix(1 0 0 -1 0.922363 384.963)" fill="#E74F83"/>
<circle cx="60.8979" cy="60.8979" r="60.8979" transform="matrix(1 0 0 -1 384.354 355.642)" fill="#E74F83"/>
<circle cx="41.7263" cy="41.7263" r="41.7263" transform="matrix(1 0 0 -1 18.9663 364.663)" fill="#EDB5D5"/>
<ellipse cx="41.7263" cy="40.5986" rx="41.7263" ry="40.5986" transform="matrix(1 0 0 -1 402.398 335.342)" fill="#EDB5D5"/>
<path d="M526.342 537.615C526.449 497.139 519.759 457.041 506.653 419.61C493.547 382.18 474.282 348.151 449.958 319.465C425.634 290.779 396.728 267.999 364.889 252.425C333.051 236.851 298.903 228.788 264.397 228.696C229.89 228.605 195.701 236.487 163.78 251.892C131.859 267.297 102.832 289.924 78.3567 318.48C53.8811 347.036 34.4361 380.963 21.132 418.323C7.82783 455.684 0.925053 495.746 0.817766 536.222L263.58 536.918L526.342 537.615Z" fill="#E74F83"/>
<ellipse cx="48.4927" cy="51.8759" rx="48.4927" ry="51.8759" transform="matrix(1 0 0 -1 224.215 524.802)" fill="#EDB5D5"/>
<ellipse cx="20.2993" cy="13.5329" rx="20.2993" ry="13.5329" transform="matrix(1 0 0 -1 253.537 452.626)" fill="#E74F83"/>
<ellipse cx="18.0438" cy="24.8102" rx="18.0438" ry="24.8102" transform="matrix(1 0 0 -1 258.047 518.036)" fill="#E74F83"/>
<rect x="336.755" y="409.773" width="65.8178" height="24.8102" rx="2" transform="rotate(9.92939 336.755 409.773)" fill="#EDB5D5"/>
<rect x="131.741" y="440.247" width="69.4082" height="24.8102" rx="2" transform="rotate(-16.0562 131.741 440.247)" fill="#EDB5D5"/>
<rect y="533" width="526" height="449" fill="#E74F83"/>
<circle cx="60.8979" cy="60.8979" r="60.8979" transform="matrix(1 0 0 -1 985.923 320.963)" fill="#8FC7CE"/>
<circle cx="60.8979" cy="60.8979" r="60.8979" transform="matrix(1 0 0 -1 1369.35 291.642)" fill="#8FC7CE"/>
<circle cx="41.7263" cy="41.7263" r="41.7263" transform="matrix(1 0 0 -1 1003.97 300.663)" fill="#BBE1EF"/>
<ellipse cx="41.7263" cy="40.5986" rx="41.7263" ry="40.5986" transform="matrix(1 0 0 -1 1387.4 271.342)" fill="#BBE1EF"/>
<path d="M1511.34 473.615C1511.45 433.139 1504.76 393.041 1491.65 355.61C1478.55 318.18 1459.28 284.151 1434.96 255.465C1410.63 226.779 1381.73 203.999 1349.89 188.425C1318.05 172.851 1283.9 164.788 1249.4 164.696C1214.89 164.605 1180.7 172.487 1148.78 187.892C1116.86 203.297 1087.83 225.924 1063.36 254.48C1038.88 283.036 1019.44 316.963 1006.13 354.323C992.827 391.684 985.924 431.746 985.817 472.222L1248.58 472.918L1511.34 473.615Z" fill="#8FC7CE"/>
<ellipse cx="48.4927" cy="51.8759" rx="48.4927" ry="51.8759" transform="matrix(1 0 0 -1 1209.22 460.802)" fill="#BBE1EF"/>
<ellipse cx="20.2993" cy="13.5329" rx="20.2993" ry="13.5329" transform="matrix(1 0 0 -1 1238.54 388.626)" fill="#8FC7CE"/>
<ellipse cx="18.0438" cy="24.8102" rx="18.0438" ry="24.8102" transform="matrix(1 0 0 -1 1243.05 454.036)" fill="#8FC7CE"/>
<rect x="1321.75" y="345.773" width="65.8178" height="24.8102" rx="2" transform="rotate(9.92939 1321.75 345.773)" fill="#BBE1EF"/>
<rect x="1116.74" y="376.247" width="69.4082" height="24.8102" rx="2" transform="rotate(-16.0562 1116.74 376.247)" fill="#BBE1EF"/>
<rect x="986" y="468" width="525" height="514" fill="#8FC7CE"/>
</g>
<defs>
<clipPath id="clip0_532_210">
<rect width="1512" height="982" fill="white"/>
</clipPath>
</defs>
</svg>
